<svg width="67" height="72" viewBox="0 0 67 72" fill="none" xmlns="http://www.w3.org/2000/svg">
<path d="M33.8013 1.02906C60.0424 2.00095 66.1977 24.5164 65.9952 35.6527H1C1 23.7065 7.56026 0.0571675 33.8013 1.02906Z" stroke="black" stroke-width="2"/>
<path d="M26.8412 16.337L26.7231 16.1007C26.3603 15.3751 25.2905 15.4926 25.0938 16.2796C25.034 16.5184 25.0779 16.7714 25.2144 16.9762L25.3609 17.196C25.7567 17.7896 26.6621 17.6684 26.8877 16.9915C26.9596 16.7758 26.9429 16.5404 26.8412 16.337Z" stroke="black" stroke-width="0.5"/>
<path d="M30.8412 12.337L30.7231 12.1007C30.3603 11.3751 29.2905 11.4926 29.0938 12.2796C29.034 12.5184 29.0779 12.7714 29.2144 12.9762L29.3609 13.196C29.7567 13.7896 30.6621 13.6684 30.8877 12.9915C30.9596 12.7758 30.9429 12.5404 30.8412 12.337Z" stroke="black" stroke-width="0.5"/>
<path d="M31.8412 17.337L31.7231 17.1007C31.3603 16.3751 30.2905 16.4926 30.0938 17.2796C30.034 17.5184 30.0779 17.7714 30.2144 17.9762L30.3609 18.196C30.7567 18.7896 31.6621 18.6684 31.8877 17.9915C31.9596 17.7758 31.9429 17.5404 31.8412 17.337Z" stroke="black" stroke-width="0.5"/>
<path d="M35.8412 14.337L35.7231 14.1007C35.3603 13.3751 34.2905 13.4926 34.0938 14.2796C34.034 14.5184 34.0779 14.7714 34.2144 14.9762L34.3609 15.196C34.7567 15.7896 35.6621 15.6684 35.8877 14.9915C35.9596 14.7758 35.9429 14.5404 35.8412 14.337Z" stroke="black" stroke-width="0.5"/>
<path d="M39.8412 19.337L39.7231 19.1007C39.3603 18.3751 38.2905 18.4926 38.0938 19.2796C38.034 19.5184 38.0779 19.7714 38.2144 19.9762L38.3609 20.196C38.7567 20.7896 39.6621 20.6684 39.8877 19.9915C39.9596 19.7758 39.9429 19.5404 39.8412 19.337Z" stroke="black" stroke-width="0.5"/>
<path d="M41.8412 15.337L41.7231 15.1007C41.3603 14.3751 40.2905 14.4926 40.0938 15.2796C40.034 15.5184 40.0779 15.7714 40.2144 15.9762L40.3609 16.196C40.7567 16.7896 41.6621 16.6684 41.8877 15.9915C41.9596 15.7758 41.9429 15.5404 41.8412 15.337Z" stroke="black" stroke-width="0.5"/>
<path d="M40.8412 24.337L40.7231 24.1007C40.3603 23.3751 39.2905 23.4926 39.0938 24.2796C39.034 24.5184 39.0779 24.7714 39.2144 24.9762L39.3609 25.196C39.7567 25.7896 40.6621 25.6684 40.8877 24.9915C40.9596 24.7758 40.9429 24.5404 40.8412 24.337Z" stroke="black" stroke-width="0.5"/>
<path d="M35.8412 21.337L35.7231 21.1007C35.3603 20.3751 34.2905 20.4926 34.0938 21.2796C34.034 21.5184 34.0779 21.7714 34.2144 21.9762L34.3609 22.196C34.7567 22.7896 35.6621 22.6684 35.8877 21.9915C35.9596 21.7758 35.9429 21.5404 35.8412 21.337Z" stroke="black" stroke-width="0.5"/>
<path d="M31.8412 24.337L31.7231 24.1007C31.3603 23.3751 30.2905 23.4926 30.0938 24.2796C30.034 24.5184 30.0779 24.7714 30.2144 24.9762L30.3609 25.196C30.7567 25.7896 31.6621 25.6684 31.8877 24.9915C31.9596 24.7758 31.9429 24.5404 31.8412 24.337Z" stroke="black" stroke-width="0.5"/>
<path d="M26.8412 23.337L26.7231 23.1007C26.3603 22.3751 25.2905 22.4926 25.0938 23.2796C25.034 23.5184 25.0779 23.7714 25.2144 23.9762L25.3609 24.196C25.7567 24.7896 26.6621 24.6684 26.8877 23.9915C26.9596 23.7758 26.9429 23.5404 26.8412 23.337Z" stroke="black" stroke-width="0.5"/>
<path d="M61.4009 38.6527H5.59906C3.05907 38.6527 1 40.7117 1 43.2517C1 45.7917 3.05907 47.8508 5.59906 47.8508H61.4009C63.9409 47.8508 66 45.7917 66 43.2517C66 40.7117 63.9409 38.6527 61.4009 38.6527Z" stroke="black" stroke-width="2"/>
<path d="M37.412 50.8508H8.79053C4.48794 50.8508 1 54.3387 1 58.6413C1 59.8508 1.28159 61.0436 1.82247 62.1254L2.0643 62.609C2.94067 64.3618 4.30889 65.8211 6.00158 66.8085L7.29236 67.5615C9.48193 68.8387 11.9578 69.5441 14.4918 69.6125L32.9091 70.1101H59.8859C62.4858 70.1101 64.8013 68.4659 65.6583 66.0113C65.8845 65.3635 66 64.6822 66 63.996V59.2767V54.4619C66 52.4675 64.3832 50.8508 62.3889 50.8508C60.3945 50.8508 58.7778 52.4675 58.7778 54.4619V55.0638C58.7778 56.7257 57.4305 58.073 55.7685 58.073C54.1065 58.073 52.7593 56.7257 52.7593 55.0638V52.9573C52.7593 51.7939 51.8162 50.8508 50.6528 50.8508C49.4894 50.8508 48.5463 51.7939 48.5463 52.9573V59.5777C48.5463 61.0734 47.3337 62.286 45.838 62.286C44.3422 62.286 43.1296 61.0734 43.1296 59.5777V56.5684C43.1296 53.4107 40.5698 50.8508 37.412 50.8508Z" stroke="black" stroke-width="2"/>
</svg>
