<svg width="92" height="92" viewBox="0 0 92 92" fill="none" xmlns="http://www.w3.org/2000/svg">
<path d="M46.4172 1.04024C82.751 2.38593 91.2737 33.5612 90.9934 48.9806H1C1 32.4398 10.0834 -0.30546 46.4172 1.04024Z" stroke="black" stroke-width="2"/>
<path d="M33.1777 26.6225L33.1073 26.9042C33.039 27.1775 33.0891 27.467 33.2454 27.7014L33.5325 28.1321C33.9941 28.8245 35.0501 28.6831 35.3132 27.8936L35.369 27.7263C35.4529 27.4747 35.4334 27.2001 35.3148 26.9629L35.0423 26.4179C34.6271 25.5875 33.4029 25.7219 33.1777 26.6225Z" stroke="black" stroke-width="0.5"/>
<path d="M35.1777 16.6225L35.1073 16.9042C35.039 17.1775 35.0891 17.467 35.2454 17.7014L35.5325 18.1321C35.9941 18.8245 37.0501 18.6831 37.3132 17.8936L37.369 17.7263C37.4529 17.4747 37.4334 17.2001 37.3148 16.9629L37.0423 16.4179C36.6271 15.5875 35.4029 15.7219 35.1777 16.6225Z" stroke="black" stroke-width="0.5"/>
<path d="M41.1777 23.6225L41.1073 23.9042C41.039 24.1775 41.0891 24.467 41.2454 24.7014L41.5325 25.1321C41.9941 25.8245 43.0501 25.6831 43.3132 24.8936L43.369 24.7263C43.4529 24.4747 43.4334 24.2001 43.3148 23.9629L43.0423 23.4179C42.6271 22.5875 41.4029 22.7219 41.1777 23.6225Z" stroke="black" stroke-width="0.5"/>
<path d="M45.1777 17.6225L45.1073 17.9042C45.039 18.1775 45.0891 18.467 45.2454 18.7014L45.5325 19.1321C45.9941 19.8245 47.0501 19.6831 47.3132 18.8936L47.369 18.7263C47.4529 18.4747 47.4334 18.2001 47.3148 17.9629L47.0423 17.4179C46.6271 16.5875 45.4029 16.7219 45.1777 17.6225Z" stroke="black" stroke-width="0.5"/>
<path d="M50.1777 24.6225L50.1073 24.9042C50.039 25.1775 50.0891 25.467 50.2454 25.7014L50.5325 26.1321C50.9941 26.8245 52.0501 26.6831 52.3132 25.8936L52.369 25.7263C52.4529 25.4747 52.4334 25.2001 52.3148 24.9629L52.0423 24.4179C51.6271 23.5875 50.4029 23.7219 50.1777 24.6225Z" stroke="black" stroke-width="0.5"/>
<path d="M55.1777 20.6225L55.1073 20.9042C55.039 21.1775 55.0891 21.467 55.2454 21.7014L55.5325 22.1321C55.9941 22.8245 57.0501 22.6831 57.3132 21.8936L57.369 21.7263C57.4529 21.4747 57.4334 21.2001 57.3148 20.9629L57.0423 20.4179C56.6271 19.5875 55.4029 19.7219 55.1777 20.6225Z" stroke="black" stroke-width="0.5"/>
<path d="M54.1777 31.6225L54.1073 31.9042C54.039 32.1775 54.0891 32.467 54.2454 32.7014L54.5325 33.1321C54.9941 33.8245 56.0501 33.6831 56.3132 32.8936L56.369 32.7263C56.4529 32.4747 56.4334 32.2001 56.3148 31.9629L56.0423 31.4179C55.6271 30.5875 54.4029 30.7219 54.1777 31.6225Z" stroke="black" stroke-width="0.5"/>
<path d="M47.1777 30.6225L47.1073 30.9042C47.039 31.1775 47.0891 31.467 47.2454 31.7014L47.5325 32.1321C47.9941 32.8245 49.0501 32.6831 49.3132 31.8936L49.369 31.7263C49.4529 31.4747 49.4334 31.2001 49.3148 30.9629L49.0423 30.4179C48.6271 29.5875 47.4029 29.7219 47.1777 30.6225Z" stroke="black" stroke-width="0.5"/>
<path d="M41.1777 31.6225L41.1073 31.9042C41.039 32.1775 41.0891 32.467 41.2454 32.7014L41.5325 33.1321C41.9941 33.8245 43.0501 33.6831 43.3132 32.8936L43.369 32.7263C43.4529 32.4747 43.4334 32.2001 43.3148 31.9629L43.0423 31.4179C42.6271 30.5875 41.4029 30.7219 41.1777 31.6225Z" stroke="black" stroke-width="0.5"/>
<path d="M34.1777 34.6225L34.1073 34.9042C34.039 35.1775 34.0891 35.467 34.2454 35.7014L34.5325 36.1321C34.9941 36.8245 36.0501 36.6831 36.3132 35.8936L36.369 35.7263C36.4529 35.4747 36.4334 35.2001 36.3148 34.9629L36.0423 34.4179C35.6271 33.5875 34.4029 33.7219 34.1777 34.6225Z" stroke="black" stroke-width="0.5"/>
<path d="M86.5 51.9806H5.5C3.01472 51.9806 1 53.9953 1 56.4806C1 58.9659 3.01472 60.9806 5.5 60.9806H86.5C88.9853 60.9806 91 58.9659 91 56.4806C91 53.9953 88.9853 51.9806 86.5 51.9806Z" stroke="black" stroke-width="2"/>
<path d="M51.4167 63.9806H11.7869C5.82946 63.9806 1 68.8101 1 74.7675C1 76.4421 1.38989 78.0937 2.1388 79.5916L2.47365 80.2612C3.68709 82.6881 5.58154 84.7087 7.92526 86.0759L9.7125 87.1185C12.7442 88.887 16.1724 89.8636 19.6809 89.9584L45.1818 90.6473H82.5343C86.1342 90.6473 89.3403 88.3708 90.5269 84.9721C90.84 84.0751 91 83.1317 91 82.1816L91 75.6473V68.9806C91 66.2192 88.7614 63.9806 86 63.9806C83.2386 63.9806 81 66.2192 81 68.9806V69.814C81 72.1151 79.1345 73.9806 76.8333 73.9806C74.5321 73.9806 72.6667 72.1151 72.6667 69.814V66.8973C72.6667 65.2865 71.3608 63.9806 69.75 63.9806C68.1392 63.9806 66.8333 65.2865 66.8333 66.8973V76.064C66.8333 78.135 65.1544 79.814 63.0833 79.814C61.0123 79.814 59.3333 78.135 59.3333 76.064V71.8973C59.3333 67.525 55.7889 63.9806 51.4167 63.9806Z" stroke="black" stroke-width="2"/>
</svg>
