<svg width="93" height="204" viewBox="0 0 93 204" fill="none" xmlns="http://www.w3.org/2000/svg">
<path d="M6.06175 88.802L4.68531 89.3982L6.06175 88.802ZM84.1939 97.9391L85.2986 98.9537L84.1939 97.9391ZM44.1131 53.269L43.3441 51.9811L44.1131 53.269ZM2.51023 131.949L1.0826 131.489L2.51023 131.949ZM23.292 203.404C24.0676 203.695 24.9323 203.303 25.2234 202.527L29.966 189.887C30.257 189.112 29.8642 188.247 29.0886 187.956C28.313 187.665 27.4483 188.058 27.1572 188.834L22.9415 200.069L11.7064 195.853C10.9308 195.562 10.0661 195.955 9.77507 196.73C9.48404 197.506 9.87687 198.371 10.6525 198.662L23.292 203.404ZM25.1846 201.38C24.7828 200.495 23.8291 198.491 22.5724 195.776L19.8499 197.036C21.1342 199.81 22.0519 201.737 22.4533 202.62L25.1846 201.38ZM17.5385 184.542C16.0161 181.018 14.4056 177.157 12.8363 173.157L10.0435 174.253C11.6277 178.291 13.2516 182.183 14.7845 185.731L17.5385 184.542ZM8.61205 161.622C7.25597 157.592 6.06253 153.619 5.15201 149.886L2.23747 150.597C3.17355 154.435 4.39369 158.493 5.76874 162.579L8.61205 161.622ZM3.31301 138.007C3.25729 135.756 3.46487 133.877 3.93786 132.41L1.0826 131.489C0.469305 133.391 0.253454 135.638 0.313923 138.081L3.31301 138.007ZM3.93786 132.41C4.60628 130.336 5.2681 127.804 5.9754 124.96L3.06409 124.236C2.35732 127.078 1.71666 129.522 1.0826 131.489L3.93786 132.41ZM9.7092 110.207C10.9699 105.603 12.4499 100.72 14.2618 95.7806L11.4453 94.7474C9.59594 99.7886 8.09113 104.757 6.81575 109.414L9.7092 110.207ZM20.2958 81.9885C22.5942 77.5875 25.2485 73.326 28.3405 69.3709L25.977 67.5232C22.755 71.6447 20.005 76.0648 17.6366 80.5997L20.2958 81.9885ZM38.7711 58.7804C40.6872 57.261 42.7211 55.8472 44.8821 54.5569L43.3441 51.9811C41.066 53.3414 38.9234 54.8309 36.9071 56.4298L38.7711 58.7804ZM44.8821 54.5569C46.9088 53.3468 48.9004 52.4172 50.8458 51.737L49.8556 48.9051C47.7078 49.6561 45.5334 50.674 43.3441 51.9811L44.8821 54.5569ZM63.6629 50.6597C67.9557 51.4695 71.9034 53.4469 75.3316 56.2205L77.2185 53.8882C73.4588 50.8464 69.0638 48.6256 64.2191 47.7117L63.6629 50.6597ZM83.739 66.3335C85.9357 70.2696 87.3967 74.5664 87.9585 78.8001L90.9324 78.4054C90.3176 73.772 88.7271 69.1153 86.3587 64.8715L83.739 66.3335ZM86.5132 91.5699C85.6901 93.5213 84.5575 95.3256 83.0891 96.9244L85.2986 98.9537C87.0116 97.0887 88.327 94.9888 89.2773 92.7358L86.5132 91.5699ZM83.0891 96.9244C81.5271 98.6252 79.6907 100.198 77.6276 101.624L79.3333 104.091C81.5583 102.554 83.5685 100.837 85.2986 98.9537L83.0891 96.9244ZM64.4279 107.828C59.8437 109.222 54.9199 110.083 49.9321 110.338L50.0856 113.334C55.3122 113.067 60.4777 112.165 65.3004 110.699L64.4279 107.828ZM35.285 109.263C30.4193 108.251 25.7889 106.561 21.6624 104.134L20.1414 106.719C24.5865 109.334 29.5321 111.131 34.6741 112.2L35.285 109.263ZM10.9941 94.4993C9.62702 92.5938 8.43149 90.4993 7.4382 88.2059L4.68531 89.3982C5.76336 91.8873 7.0645 94.1684 8.55656 96.2481L10.9941 94.4993ZM7.4382 88.2059C6.70658 86.5166 6.37018 84.6144 6.41482 82.5102L3.41549 82.4466C3.36321 84.9114 3.75604 87.2526 4.68531 89.3982L7.4382 88.2059ZM9.64582 70.6729C11.2787 67.183 13.481 63.5062 16.1441 59.7374L13.694 58.0062C10.9546 61.883 8.65375 65.7143 6.92855 69.4015L9.64582 70.6729ZM24.1132 49.7046C26.8602 46.5749 29.8364 43.4525 32.9755 40.3901L30.8806 38.2427C27.6909 41.3544 24.6609 44.5328 21.8585 47.7256L24.1132 49.7046ZM42.496 31.7089C45.7805 28.9052 49.1545 26.2086 52.5573 23.6671L50.7621 21.2635C47.3064 23.8446 43.8815 26.5818 40.5483 29.4271L42.496 31.7089ZM63.1412 16.3306C66.9247 13.914 70.6595 11.7549 74.2619 9.91735L72.8987 7.24495C69.1988 9.13228 65.3797 11.341 61.5263 13.8023L63.1412 16.3306ZM85.9628 4.97485C88.1165 4.28706 90.1507 3.7846 92.0419 3.48104L91.5664 0.518957C89.5002 0.850605 87.3183 1.39271 85.0501 2.11705L85.9628 4.97485Z" fill="#CE1F26"/>
</svg>
