<svg width="92" height="202" viewBox="0 0 92 202" fill="none" xmlns="http://www.w3.org/2000/svg">
<path d="M6.06175 88.802L4.91472 89.2988L6.06175 88.802ZM84.1939 97.9391L85.1145 98.7846L84.1939 97.9391ZM44.1131 53.269L43.4723 52.1958L44.1131 53.269ZM2.51023 131.949L1.32054 131.566L1.32054 131.566L2.51023 131.949ZM23.819 202L25.0787 187.621L11.9966 193.72L23.819 202ZM17.309 184.641C15.7857 181.115 14.1741 177.252 12.6036 173.248L10.2762 174.161C11.8592 178.196 13.482 182.086 15.014 185.632L17.309 184.641ZM8.37511 161.702C7.01745 157.667 5.82178 153.687 4.90913 149.945L2.48035 150.538C3.4143 154.367 4.63222 158.418 6.00568 162.499L8.37511 161.702ZM3.06308 138.013C3.00697 135.746 3.21524 133.836 3.69992 132.333L1.32054 131.566C0.718935 133.432 0.503774 135.647 0.563847 138.075L3.06308 138.013ZM3.69992 132.333C4.36548 130.269 5.02554 127.744 5.73279 124.9L3.3067 124.297C2.59988 127.139 1.95746 129.59 1.32054 131.566L3.69992 132.333ZM9.46808 110.141C10.73 105.533 12.2121 100.642 14.0271 95.6945L11.68 94.8335C9.83377 99.8662 8.33103 104.828 7.05687 109.48L9.46808 110.141ZM20.0742 81.8727C22.3785 77.4606 25.0408 73.1859 28.1435 69.2169L26.1739 67.6772C22.9628 71.7848 20.2208 76.1917 17.8582 80.7154L20.0742 81.8727ZM38.6158 58.5845C40.5402 57.0585 42.5832 55.6384 44.7539 54.3423L43.4723 52.1958C41.2039 53.5502 39.0704 55.0334 37.0625 56.6257L38.6158 58.5845ZM44.7539 54.3423C46.7942 53.1241 48.801 52.1871 50.7633 51.501L49.9381 49.1411C47.8072 49.8862 45.6481 50.8967 43.4723 52.1958L44.7539 54.3423ZM63.7093 50.414C68.048 51.2325 72.0331 53.2302 75.4888 56.0261L77.0613 54.0826C73.3292 51.0631 68.9715 48.8626 64.1727 47.9573L63.7093 50.414ZM83.9573 66.2117C86.1683 70.1734 87.6401 74.5002 88.2063 78.7672L90.6846 78.4383C90.0742 73.8382 88.4944 69.2115 86.1404 64.9934L83.9573 66.2117ZM86.7435 91.6671C85.9098 93.6436 84.762 95.4725 83.2732 97.0935L85.1145 98.7846C86.8071 96.9417 88.1073 94.8665 89.047 92.6387L86.7435 91.6671ZM83.2732 97.0935C81.6972 98.8095 79.8463 100.394 77.7698 101.829L79.1912 103.886C81.4027 102.357 83.3984 100.653 85.1145 98.7846L83.2732 97.0935ZM64.5006 108.067C59.8965 109.467 54.9526 110.332 49.9449 110.588L50.0728 113.085C55.2795 112.818 60.4249 111.919 65.2277 110.459L64.5006 108.067ZM35.2341 109.508C30.3453 108.491 25.6887 106.792 21.5356 104.349L20.2681 106.504C24.6867 109.103 29.606 110.891 34.725 111.956L35.2341 109.508ZM10.791 94.645C9.41348 92.725 8.20915 90.6149 7.20879 88.3052L4.91472 89.2988C5.9857 91.7716 7.27805 94.0372 8.75969 96.1024L10.791 94.645ZM7.20879 88.3052C6.4607 86.578 6.1196 84.6392 6.16487 82.5049L3.66544 82.4519C3.61379 84.8866 4.00192 87.1913 4.91472 89.2988L7.20879 88.3052ZM9.41938 70.5669C11.06 67.0606 13.2704 63.3709 15.9399 59.5931L13.8982 58.1504C11.1651 62.0183 8.8725 65.8367 7.15499 69.5074L9.41938 70.5669ZM23.9253 49.5397C26.677 46.4048 29.6576 43.2776 32.801 40.2112L31.0552 38.4216C27.8697 41.5292 24.8442 44.703 22.0464 47.8905L23.9253 49.5397ZM42.3337 31.5187C45.6222 28.7116 49.0005 26.0116 52.4077 23.4668L50.9117 21.4638C47.4604 24.0416 44.0398 26.7754 40.7106 29.6172L42.3337 31.5187ZM63.0067 16.1199C66.7959 13.6996 70.5378 11.5363 74.1483 9.69465L73.0123 7.46765C69.3205 9.35083 65.5085 11.5555 61.6609 14.013L63.0067 16.1199ZM85.8868 4.7367C88.05 4.04586 90.0965 3.5401 92.0022 3.2342L91.606 0.765798C89.5544 1.0951 87.3848 1.6339 85.1262 2.3552L85.8868 4.7367Z" fill="#CE1F26"/>
</svg>
