<svg width="724" height="617" viewBox="0 0 724 617" fill="none" xmlns="http://www.w3.org/2000/svg">
<path fill-rule="evenodd" clip-rule="evenodd" d="M351.413 0.491242C337.469 1.87712 329.219 4.19397 316.834 10.2008C293.643 21.4503 275.127 38.5781 257.237 65.3336C241.713 88.5502 23.0497 444.096 16.7902 456.299C4.96691 479.353 -0.0378917 498.323 0.000215879 519.945C0.0877223 569.625 32.5286 603.541 90.4268 614.488C102.856 616.838 120.348 617 361.293 617C602.238 617 619.73 616.838 632.159 614.488C655.645 610.048 673.528 602.688 688.709 591.216C702.747 580.61 716.337 559.946 719.879 543.827C720.867 539.325 722.203 535.314 722.848 534.914C723.493 534.516 724.011 526.757 724 517.673C723.987 508.226 723.471 501.957 722.794 503.026C722.018 504.251 721.291 502.547 720.686 498.082C719.289 487.765 713.262 470.859 705.794 456.299C697.43 439.992 468.443 68.8442 458.196 54.9868C429.593 16.3024 390.918 -3.4347 351.413 0.491242ZM342.335 30.6923C324.025 35.9208 304.69 49.8064 290.489 67.9259C280.501 80.6701 49.1675 454.91 41.0012 471.535C22.4442 509.311 24.0913 541.812 45.6475 563.259C54.7905 572.354 65.678 578.491 81.463 583.448L93.8339 587.333H361.293H628.752L641.123 583.448C656.908 578.491 667.795 572.354 676.938 563.259C698.678 541.63 700.174 508.777 681.15 470.784C673.081 454.67 443.62 82.9516 433.661 69.8614C420.171 52.1289 403.125 38.8677 385.621 32.4893C375.302 28.7272 352.524 27.7821 342.335 30.6923ZM268.7 214.183C254.689 222.713 246.541 229.094 234.069 241.303C207.979 266.841 190.627 298.514 183.474 333.66C180.609 347.739 178.838 378.984 180.791 380.979C181.265 381.463 207.941 380.254 240.07 378.29C272.199 376.328 300.458 374.722 302.868 374.72C307.224 374.719 307.258 374.662 308.089 365.74C309.574 349.834 318.824 334.89 333.589 324.548L337.642 321.708L309.239 264.863C293.618 233.598 280.362 208.032 279.782 208.049C279.201 208.066 274.214 210.827 268.7 214.183ZM413.347 264.863L384.944 321.708L388.997 324.548C403.762 334.89 413.012 349.834 414.497 365.74C415.328 374.662 415.362 374.719 419.718 374.72C422.128 374.722 450.387 376.328 482.516 378.29C514.645 380.254 541.32 381.463 541.795 380.979C542.269 380.494 542.51 372.848 542.331 363.988C541.095 302.882 506.847 245.349 452.788 213.557C447.607 210.512 443.003 208.018 442.558 208.018C442.114 208.018 428.968 233.598 413.347 264.863ZM348.59 340.932C335.656 346.802 329.671 356.111 329.589 370.481C329.5 386.201 338.733 397.714 354.589 401.645C367.524 404.854 382.015 398.453 389.09 386.405C396.239 374.23 393.782 356.349 383.659 346.905C378.509 342.099 368.281 338.05 361.293 338.05C357.8 338.05 352.084 339.347 348.59 340.932ZM295.628 468.704C276.413 497.864 260.94 521.916 261.242 522.151C264.865 524.997 281.127 533.787 288.743 537.016C312.875 547.248 335.089 551.765 361.293 551.765C387.497 551.765 409.711 547.248 433.843 537.016C441.459 533.787 457.721 524.997 461.344 522.151C462.507 521.239 391.923 415.688 390.15 415.688C389.12 415.688 387.893 416.306 387.428 417.062C385.988 419.392 368.43 424.164 361.293 424.164C354.156 424.164 336.598 419.392 335.158 417.062C334.692 416.306 333.466 415.688 332.436 415.688C331.405 415.688 314.841 439.546 295.628 468.704ZM0.515374 519.522C0.518197 528.846 0.746843 532.477 1.02206 527.59C1.2987 522.704 1.29729 515.075 1.01783 510.638C0.738375 506.201 0.512552 510.199 0.515374 519.522Z" fill="#A9A9A9" fill-opacity="0.1"/>
</svg>
