<svg width="125" height="125" viewBox="0 0 125 125" fill="none" xmlns="http://www.w3.org/2000/svg">
<path fill-rule="evenodd" clip-rule="evenodd" d="M53.892 0.0658659C52.4972 0.201031 52.3541 0.598703 51.7173 6.10354C51.3957 8.88505 51.066 11.3698 50.9848 11.6255C50.7945 12.2253 50.2914 12.4827 47.6158 13.3491C44.5783 14.3332 42.227 15.3285 38.6064 17.1621C35.0044 18.9867 35.3779 19.0268 32.0911 16.4626C26.287 11.934 25.8754 11.6822 25.1253 12.2026C24.825 12.4108 21.6859 15.468 18.1499 18.996C11.0225 26.1074 11.3333 25.6164 12.7132 27.5871C13.0986 28.1378 14.464 29.9082 15.7471 31.5213C17.0301 33.1345 18.2091 34.6951 18.3669 34.9892C18.6156 35.4528 18.4403 35.9747 17.0538 38.8999C14.804 43.6465 14.6176 44.0975 13.4594 47.6018C12.7352 49.7927 12.2683 50.8296 11.8993 51.0679C11.586 51.27 9.73727 51.5648 7.33707 51.7955C5.11761 52.0089 2.71423 52.3015 1.99618 52.4454C-0.015648 52.849 3.67411e-06 52.7676 3.67411e-06 62.8729C3.67411e-06 69.1743 0.0794885 71.5555 0.305715 72.0362C0.750341 72.9814 1.99006 73.3977 4.89138 73.5761C6.30377 73.6629 7.51438 73.766 7.58164 73.8054C7.64889 73.845 8.52934 73.9508 9.53819 74.0407C11.999 74.26 12.453 74.6166 13.1588 76.8841C14.1449 80.0518 15.3347 83.0085 16.8432 86.0406C17.6496 87.6611 18.3808 89.2716 18.4681 89.6191C18.6733 90.4367 18.1678 91.2311 14.7052 95.5322C12.925 97.7429 11.9839 99.1161 11.9839 99.502C11.9839 99.8481 12.4075 100.57 13.0079 101.248C14.5271 102.962 23.9357 112.253 24.8856 112.977C25.6756 113.579 25.736 113.588 26.5149 113.217C26.9598 113.005 28.5789 111.805 30.113 110.55C34.314 107.115 34.5982 106.925 35.5408 106.925C36.0798 106.925 37.4357 107.446 39.2868 108.364C41.7912 109.606 46.6589 111.553 49.7172 112.537C50.2264 112.701 50.7972 113.073 50.9855 113.363C51.1834 113.668 51.494 115.491 51.7209 117.68C51.9369 119.763 52.1788 122.091 52.2585 122.853C52.4943 125.111 52.2316 125.059 63.0004 124.967C69.8266 124.909 72.1649 124.814 72.443 124.583C72.8571 124.239 73.1963 122.35 73.7446 117.334C73.9491 115.463 74.2514 113.653 74.4162 113.311C74.6422 112.843 75.1369 112.553 76.4278 112.133C79.8275 111.029 82.3647 110 86.0613 108.225C88.9908 106.819 89.9505 106.461 90.3904 106.611C90.9062 106.786 92.4262 107.926 96.8493 111.456C99.077 113.234 99.4214 113.39 100.094 112.922C100.845 112.4 111.331 101.945 112.547 100.506C113.3 99.6147 113.497 99.2048 113.386 98.7607C113.248 98.2127 111.559 95.9975 108.67 92.5759C106.285 89.7506 106.292 90.151 108.546 85.4523C109.619 83.2143 110.744 80.6132 111.046 79.6722C112.254 75.9084 113.034 74.1441 113.585 73.9349C113.881 73.8225 114.776 73.658 115.575 73.5697C116.373 73.4813 118.622 73.1926 120.572 72.9284C124.912 72.3406 124.972 72.2944 124.98 69.5627C125.028 53.0367 125.027 53.0269 124.547 52.4359C124.186 51.9925 123.655 51.8566 121.184 51.5746C119.57 51.3903 117.314 51.1679 116.17 51.0801C115.027 50.9924 113.897 50.865 113.659 50.7968C113.108 50.6387 112.492 49.4176 111.64 46.7976C110.687 43.8682 110.005 42.2516 108.158 38.5477C106.555 35.334 106.545 35.302 106.923 34.5147C107.304 33.7209 109.121 31.2205 109.986 30.2992C110.954 29.268 113.014 26.4806 113.232 25.9077C113.425 25.4003 113.316 25.1278 112.523 24.1371C110.81 21.9994 100.391 11.8843 99.7308 11.7186C98.8789 11.505 98.413 11.7868 95.2623 14.4214C92.1418 17.0309 90.3836 18.2004 89.5817 18.2004C89.2691 18.2004 88.014 17.6989 86.7924 17.0856C83.8945 15.6313 79.9146 14.0154 77.1615 13.1756C75.9509 12.8065 74.8236 12.3984 74.6563 12.2686C74.1278 11.8587 73.9087 10.6933 73.2449 4.75728C72.8441 1.17187 72.5875 0.416121 71.6966 0.192476C71.0671 0.0345801 55.3643 -0.0771201 53.892 0.0658659ZM37.6636 51.1972V53.8858H39.0087H40.3539V66.1068V78.3279H43.1664C45.246 78.3279 45.9826 78.2482 45.9931 78.0224C46.0751 76.2454 45.9227 48.8598 45.83 48.71C45.7615 48.5992 43.8962 48.5086 41.6846 48.5086H37.6636V51.1972ZM57.4737 51.1972V53.8858H58.8188H60.1639V66.1068V78.3279H62.9765H65.789V63.4182V48.5086H61.6314H57.4737V51.1972ZM77.5283 51.1972V53.8858H78.8735H80.2186V66.1068V78.3279H83.0311H85.8437V63.4182V48.5086H81.686H77.5283V51.1972Z" fill="#0055FF"/>
</svg>
