<svg width="164" height="169" viewBox="0 0 164 169" fill="none" xmlns="http://www.w3.org/2000/svg">
<path fill-rule="evenodd" clip-rule="evenodd" d="M100.897 0.707575C100.248 1.06016 99.3788 1.86401 98.9664 2.49404C97.8423 4.20945 94.8011 5.58404 92.2578 5.52656C89.2799 5.45957 88.3428 5.9063 84.8819 9.04202C82.885 10.8516 81.3395 11.8681 80.2843 12.0659C78.339 12.4307 77.9583 12.0809 77.7745 9.76122C77.6414 8.08202 77.5377 7.95755 76.3449 8.04174C74.5947 8.1653 72.2742 10.0265 71.2701 12.1121C70.6182 13.4654 70.4597 14.7567 70.5317 18.1346C70.5824 20.4995 70.3918 23.4745 70.1085 24.7459C69.6539 26.7859 69.7114 27.3978 70.5974 29.951C71.7554 33.2877 71.606 36.0468 70.0858 39.4075C67.1967 45.7957 69.5335 60.4332 74.6726 68.1367C75.9859 70.1051 76.3213 70.928 75.9053 71.1606C75.5911 71.3362 71.534 71.73 66.8902 72.036C53.4581 72.9195 41.753 71.5997 36.288 68.5848C35.1241 67.9425 31.7782 65.1196 28.8524 62.3116C23.7364 57.4011 23.5332 57.1341 23.5332 55.3273C23.5332 54.2939 23.9524 51.9209 24.4648 50.0534C26.2543 43.5312 25.0642 41.0237 20.1777 41.0237C16.6145 41.0237 13.8023 42.8745 11.9961 46.4076C10.7136 48.9169 10.6375 49.3518 10.7385 53.6345C10.7973 56.1406 10.8992 58.9957 10.9648 59.9792L11.0839 61.768L7.56999 62.5732C0.132108 64.2777 -1.19521 66.2353 0.889932 72.4239C1.65454 74.6933 1.71747 75.4623 1.31683 77.6298C0.793507 80.4605 0.992695 81.4626 2.53098 83.7329C3.42642 85.0545 3.54548 85.6615 3.32864 87.8064C3.11043 89.9636 3.22859 90.5533 4.14712 91.8999C6.71846 95.6701 8.77463 96.3355 25.344 98.7588C27.2114 99.0322 32.6098 99.2752 37.3406 99.2988C46.3149 99.344 47.4458 99.2032 58.8262 96.622C61.4505 96.0268 63.9214 95.538 64.3179 95.5357C64.94 95.5321 65.0798 96.6627 65.3392 103.792C65.5045 108.335 65.8295 113.783 66.0609 115.899C69.4194 146.612 70.7006 157.653 71.1039 159.35C71.6191 161.52 72.63 162.971 73.6269 162.971C74.4055 162.971 74.4453 158.057 73.7178 151.662C73.4331 149.158 73.2887 147.021 73.3964 146.912C73.5046 146.805 75.6722 147.407 78.2132 148.25C87.9408 151.481 99.8998 152.87 108.017 151.711L110.335 151.381L110.58 154.96C110.715 156.929 110.709 160.893 110.568 163.77L110.31 169L113.663 168.701C117.276 168.379 133.225 164.771 134.828 163.914C136.058 163.256 136.05 163.077 134.645 159.74C134.008 158.227 133.607 156.869 133.754 156.722C134.037 156.439 135.089 156.436 141.253 156.697C145.78 156.889 147.014 156.336 148.482 153.461C149.82 150.837 150.027 148.27 149.189 144.68L148.458 141.551L152.498 134.496C156.904 126.805 160.41 119.961 162.274 115.415C165.515 107.513 164.563 104.339 156.213 95.218C148.848 87.1728 139.151 79.0836 130.683 73.9198C126.46 71.3453 118.693 67.4696 117.756 67.4696C117.473 67.4696 117.242 67.1713 117.242 66.8065C117.242 65.6338 119.79 63.1955 122.941 61.3534C124.627 60.3671 126.688 58.9179 127.521 58.133L129.035 56.7055L128.98 51.7498C128.93 47.2024 129.039 46.5185 130.3 43.4407C132.433 38.2347 132.795 36.4066 132.805 30.7974C132.812 26.5392 132.617 24.9609 131.737 22.1977C130.723 19.009 130.416 18.5736 126.407 14.6612C124.067 12.3773 121.57 9.58968 120.858 8.46674C119.254 5.93844 118.254 5.28803 114.528 4.35203C112.863 3.93336 110.396 2.83622 108.838 1.82146C105.813 -0.149223 103.158 -0.521273 100.897 0.707575ZM100.27 5.41748L97.745 8.54188L94.2239 8.30063L90.7023 8.05939L86.1151 11.1132C80.5482 14.8187 78.4255 15.3143 76.1869 13.4306C75.4155 12.7815 74.554 12.2506 74.2724 12.2506C73.353 12.2506 72.7957 14.6472 73.1158 17.2289C73.6767 21.7623 75.588 23.9226 78.5464 23.3677C79.7012 23.1509 81.2006 22.0732 83.9475 19.4865C86.039 17.5172 88.2233 15.7887 88.8019 15.6457C89.3804 15.5026 90.8725 15.6964 92.1174 16.0765C95.3651 17.0673 96.8011 16.937 99.3607 15.4189C100.69 14.6304 102.275 14.0733 103.202 14.0687C104.575 14.062 105.161 14.4702 107.736 17.2294C111.108 20.8435 111.71 21.006 116.111 19.4924C119.931 18.1785 121.118 18.2984 123.01 20.1899C124.598 21.7777 124.611 21.8198 124.337 24.7541C124.165 26.5935 123.69 28.3139 123.083 29.2961C121.904 31.2025 122.071 31.6166 125.605 35.5602L128.039 38.2759L128.707 36.6918C130.262 33.0021 130.055 24.7672 128.315 21.1024C127.609 19.6133 120.687 11.3608 118.374 9.24931C117.792 8.71885 115.824 7.71405 113.998 7.01702C112.173 6.31954 109.476 4.9712 108.006 4.02117C104.11 1.50372 103.317 1.6472 100.27 5.41748ZM87.9064 19.153C78.1439 26.2414 74.4345 31.3758 72.6255 40.3045C71.7214 44.7664 71.9396 51.4755 73.1329 55.9279C74.8713 62.4116 79.0846 68.9808 83.7828 72.5316C87.0259 74.9825 88.513 75.5646 94.1166 76.5757C96.7101 77.0437 98.9451 77.5398 99.0832 77.6778C99.2212 77.8159 99.0347 78.1381 98.6685 78.3939C98.1918 78.727 98.6721 78.7908 100.359 78.6193C103.377 78.3124 107.401 76.3421 109.215 74.2832L110.632 72.6746L108.957 72.5343C108.036 72.4569 107.283 72.2143 107.283 71.9952C107.283 71.7762 109.51 69.17 112.233 66.2045C116.528 61.5254 117.667 60.5604 120.841 58.9093C122.853 57.8628 124.822 56.5136 125.217 55.9116C126.047 54.6452 126.156 52.1513 125.439 50.8124C125.166 50.3037 124.714 48.8024 124.433 47.4762C123.868 44.8067 123.171 43.2588 121.921 41.8968C120.092 39.9053 118.6 37.9582 118.6 37.5621C118.6 36.7004 119.937 37.1928 121.302 38.5574C123.539 40.7938 123.4 39.7442 121.119 37.1765C119.243 35.0655 118.434 33.0709 119.453 33.0709C119.87 33.0709 122.155 35.4892 123.942 37.8233L124.982 39.1812L124.317 37.8233C123.951 37.0765 122.617 35.4548 121.352 34.2196C118.758 31.6845 118.452 30.3371 120.018 28.3456C121.347 26.656 121.668 23.5288 120.619 22.4801C119.938 21.7999 119.416 21.7378 117.06 22.0583C113.468 22.5476 109.472 22.4426 108.326 21.8288C107.825 21.5609 106.551 20.6203 105.495 19.7382C103.287 17.8933 101.49 17.6788 98.338 18.8823C96.5173 19.5775 96.1908 19.5775 93.6897 18.8823C90.184 17.9078 89.5823 17.9359 87.9064 19.153ZM72.6033 25.5647C72.1664 26.7026 72.6291 28.7593 73.3521 28.8959C74.3141 29.0779 75.7251 26.1413 75.0162 25.4325C74.3045 24.721 72.8976 24.798 72.6033 25.5647ZM80.1684 26.7872C78.8298 28.0337 79.4911 28.7172 81.3943 28.0536C82.3341 27.7264 82.8371 27.2507 82.8371 26.6899C82.8371 25.5294 81.4649 25.5792 80.1684 26.7872ZM102.756 26.078C102.756 27.5843 106.142 30.8078 107.725 30.8078C108.69 30.8078 107.814 28.4207 106.354 27.0737C105.196 26.0046 102.756 25.3293 102.756 26.078ZM79.4676 34.9822C78.2064 36.7818 78.8008 40.7653 80.3305 40.7653C81.3545 40.7653 82.8371 38.495 82.8371 36.9271C82.8371 35.5073 81.7162 33.9761 80.6768 33.9761C80.3993 33.9761 79.8551 34.4287 79.4676 34.9822ZM99.8754 35.4589C98.5793 36.4066 99.4625 37.5228 102.861 39.2341C106.248 40.9396 107.283 40.954 107.283 39.2961C107.283 36.2962 102.277 33.7032 99.8754 35.4589ZM89.2215 37.8161C86.4799 40.7146 85.1246 43.4176 85.1105 46.0134C85.0992 48.1407 85.9209 49.102 88.1563 49.5768C89.834 49.9335 90.0201 49.4795 88.8987 47.7682C88.0137 46.418 88.1803 45.6463 90.5565 40.0855C91.5393 37.7853 92.3438 35.7748 92.3438 35.6186C92.3438 34.8619 91.3637 35.5516 89.2215 37.8161ZM118.6 42.168C118.6 42.8627 121.278 45.2914 122.044 45.2914C122.836 45.2914 122.832 45.0982 122.012 43.5136C121.358 42.2476 120.491 41.6705 119.242 41.6705C118.889 41.6705 118.6 41.8941 118.6 42.168ZM16.4257 44.4229C12.5592 46.3361 11.1097 52.259 13.164 57.7492C14.3868 61.0171 16.3411 62.9067 19.8799 64.2433C25.4902 66.3625 27.0719 68.9043 26.1715 74.3552C25.7301 77.0274 25.7663 77.6651 26.4481 79.176C27.1801 80.799 27.1865 81.2788 26.5409 86.2621C26.0217 90.2695 25.6323 91.8234 24.9859 92.4702C24.1665 93.2889 22.8097 93.575 15.6693 94.4331C14.1296 94.6183 13.6077 94.8414 13.9395 95.1732C14.7222 95.9557 21.6526 95.3714 23.9859 94.3263C26.4196 93.236 29.0059 90.752 30.0942 88.4586C30.6922 87.1986 30.8144 86.1969 30.5967 84.3426C30.3653 82.376 30.4998 81.473 31.2771 79.7725C31.8787 78.4559 32.331 76.3435 32.4717 74.1949L32.6977 70.7365L27.6894 65.2757C24.1973 61.4683 22.5377 59.2953 22.2063 58.0977C21.9125 57.0359 21.8423 54.1849 22.022 50.626C22.3475 44.1848 22.123 43.4805 19.7431 43.4814C18.964 43.4814 17.4715 43.9051 16.4257 44.4229ZM118.312 45.5178C117.739 47.0078 119.47 48.677 120.509 47.6378C120.86 47.287 120.784 46.8213 120.242 45.9934C119.386 44.6881 118.695 44.5179 118.312 45.5178ZM99.1588 51.5692C98.4956 53.1696 97.6046 53.5892 92.763 54.5786C87.7204 55.6097 83.3844 55.296 79.674 53.6309C76.6686 52.2825 76.2865 52.3816 75.6269 54.6809C75.008 56.8381 76.2611 59.0165 78.3101 59.3451C79.1815 59.485 80.9131 60.1992 82.158 60.932C84.2051 62.1373 84.7891 62.2609 88.2695 62.2274C91.3556 62.1975 92.9649 61.9006 96.3973 60.7279C99.0782 59.8118 101.369 59.308 102.527 59.3791C105.068 59.5352 105.472 59.1595 105.472 56.6421C105.472 54.6194 105.316 54.3211 103.228 52.369C101.994 51.2148 100.694 50.2702 100.34 50.2702C99.9863 50.2702 99.4548 50.855 99.1588 51.5692ZM94.381 55.9849C91.8911 56.3253 87.5624 56.6498 84.761 56.7068C81.9602 56.7639 79.6682 56.858 79.6682 56.9159C79.6682 56.9739 80.6256 57.5822 81.7963 58.2679C83.5967 59.3234 84.5578 59.5425 88.0463 59.695C91.8431 59.8611 92.4515 59.762 95.7486 58.4422C99.4222 56.9716 100.492 56.3407 100.492 55.6464C100.492 55.1729 100.215 55.1883 94.381 55.9849ZM86.006 64.437C86.006 65.9365 88.9304 66.716 90.533 65.6437C91.1206 65.2504 91.0939 65.0992 90.3333 64.519C89.2256 63.6739 86.006 63.6133 86.006 64.437ZM7.00955 65.4355C4.82617 66.2099 3.74602 67.4383 3.33814 69.6127C2.80848 72.4365 3.21546 72.6411 9.99965 72.9584C13.3347 73.1141 17.3796 73.4821 18.988 73.7754C22.5843 74.4317 23.7962 74.1705 24.1764 72.6565C25.4087 67.7479 14.0101 62.9534 7.00955 65.4355ZM113.269 72.6244C110.975 76.114 106.893 79.9486 104.114 81.2259C102.569 81.9356 101.147 82.1641 98.2289 82.1709L94.381 82.1795L89.0585 78.8655C86.1314 77.0428 83.3812 75.6189 82.9471 75.7012C82.0457 75.8719 81.7071 77.6715 82.1408 79.983C82.2961 80.8122 83.2454 82.4402 84.2499 83.6003C85.5637 85.1183 86.0042 85.9765 85.8195 86.6604C83.2042 96.3563 82.3617 103.59 81.9932 119.515C81.7216 131.251 81.6564 131.966 80.8461 132.121C80.3735 132.212 77.9741 131.32 75.5137 130.14C73.0533 128.961 70.9084 128.128 70.7472 128.289C70.2624 128.773 71.8808 139.756 72.6585 141.259C75.0687 145.919 87.9924 149.311 101.398 148.8C110.585 148.451 121.629 145.953 123.863 143.72C124.85 142.733 124.938 142.279 124.932 138.211C124.927 135.773 124.741 133.489 124.518 133.135C124.175 132.594 123.062 132.731 117.395 134.012C111.686 135.304 109.782 135.536 104.704 135.56C100.904 135.578 98.5467 135.406 98.2271 135.087C96.4385 133.303 95.4412 119.347 96.3855 109.307C97.1601 101.068 98.5856 92.8372 99.5128 91.2499C100.145 90.1686 101.338 89.4503 105.181 87.8404C112.882 84.6123 118.781 79.5376 119.972 75.1138C120.596 72.7955 120.223 71.6906 118.447 70.6084C116.074 69.1614 115.365 69.4375 113.269 72.6244ZM76.2729 73.9256C73.0103 74.4801 48.224 74.6295 41.9205 74.132L37.4469 73.7794L37.8462 76.1688C38.0662 77.4832 38.2269 80.188 38.2034 82.1795C38.1572 86.1241 37.0698 89.4494 34.4157 93.7619C33.6592 94.9917 33.0399 96.2296 33.0399 96.5134C33.0399 96.8868 34.7507 96.9533 39.2645 96.7542C45.8948 96.4622 60.8249 93.9099 63.2297 92.658C63.93 92.2932 65.2157 91.2123 66.0871 90.2555L67.6716 88.5161L67.9491 99.8315C68.2252 111.104 68.9251 119.881 69.7531 122.462C69.9935 123.212 71.0673 124.482 72.152 125.298C74.0442 126.722 78.6994 129.453 79.2634 129.47C79.4142 129.474 79.6541 124.437 79.7967 118.276C80.0833 105.867 80.6139 99.784 82.1137 91.6898L83.1195 86.2639L81.6618 84.3548C79.6242 81.6857 79.0466 79.6413 79.3662 76.224C79.5133 74.6453 79.4889 73.3784 79.3114 73.4088C79.1344 73.4391 77.7668 73.6717 76.2729 73.9256ZM122.181 77.5094C118.835 84.1633 113.909 88.0875 104.695 91.4391C103.143 92.0035 101.778 92.7956 101.652 93.2052C101.169 94.7731 100.015 102.353 99.367 108.205C98.573 115.375 98.5272 127.924 99.2837 130.836L99.8134 132.872L105.189 132.757C111.042 132.631 112.614 132.173 113.494 130.337C114.068 129.139 118.208 112.21 119.259 106.759C119.83 103.804 119.818 103.704 118.783 102.733C116.047 100.162 119.478 100.972 129.385 105.234C141.517 110.453 141.688 110.539 141.688 111.386C141.688 111.826 140.839 113.581 139.801 115.287C137.63 118.856 132.64 128.977 132.637 129.817C132.635 130.129 132.744 130.383 132.879 130.383C134.458 130.383 146.34 121.684 150.419 117.542C153.438 114.476 156.771 109.96 157.759 107.597C158.984 104.665 158.666 102.691 156.533 99.9854C150.695 92.5788 135.421 78.8569 128.976 75.2287C124.939 72.9557 124.376 73.1444 122.181 77.5094ZM6.9249 75.6628C4.11996 76.4743 2.77408 79.5385 4.40652 81.3974C5.10051 82.1881 6.33683 82.3941 14.3949 83.063C24.1416 83.8718 24.8913 83.7858 24.8913 81.8545C24.8913 77.5742 13.6774 73.7097 6.9249 75.6628ZM35.1459 77.8797C34.991 78.2531 34.0236 81.2064 32.9964 84.4426C30.9158 90.9974 30.3436 92.2832 28.4128 94.7396C26.8573 96.7184 27.492 96.9538 29.895 95.2886C33.4967 92.7933 36.2486 86.9953 36.1635 82.0808C36.1106 79.0121 35.5823 76.8301 35.1459 77.8797ZM7.73297 85.6941C5.01223 87.0931 5.38073 89.6603 8.55372 91.4101C10.2106 92.324 11.1984 92.5077 14.6552 92.5453C19.2814 92.5951 21.8726 91.7116 22.7504 89.7857C23.4182 88.3197 22.6255 87.6 18.8232 86.22C15.4226 84.9862 9.64337 84.7119 7.73297 85.6941ZM130.387 116.691C129.087 122.585 128.039 131.741 128.664 131.741C128.789 131.741 129.323 130.57 129.85 129.138C130.377 127.707 132.543 123.277 134.663 119.294L138.518 112.052L136.368 111.04C135.186 110.482 133.688 110.024 133.038 110.021C131.885 110.015 131.824 110.171 130.387 116.691ZM129.369 137.738C128.997 138.391 128.798 140.393 128.815 143.316C128.837 147.208 129.002 148.204 129.945 150.106C131.576 153.396 133.335 154.133 139.576 154.14C144.39 154.145 144.499 154.122 145.574 152.875C147.456 150.691 146.888 145.285 144.703 144.591C144.058 144.387 143.536 144.603 142.961 145.312C141.85 146.684 141.93 147.512 143.273 148.569C144.496 149.53 144.726 150.701 143.861 151.565C143.039 152.387 142.216 152.224 140.989 150.997C139.682 149.691 139.544 147.736 140.557 144.867C140.93 143.808 141.236 142.806 141.236 142.641C141.236 142.475 140.289 142.086 139.133 141.777C136.981 141.201 135.355 140.24 132.732 137.993C130.934 136.453 130.136 136.393 129.369 137.738Z" fill="black"/>
</svg>
