<svg width="80" height="81" viewBox="0 0 80 81" fill="none" xmlns="http://www.w3.org/2000/svg">
<path fill-rule="evenodd" clip-rule="evenodd" d="M36.801 0.16731C31.639 0.67111 27.7093 1.69472 23.3699 3.66616C12.5218 8.59422 4.48129 18.1517 1.33094 29.8631C0.347712 33.5179 0.128189 35.0482 0.0262548 38.9539C-0.0724772 42.7363 0.0977672 44.9828 0.698876 47.8305C2.75997 57.5945 7.5644 65.4566 15.224 71.5998C16.9601 72.9921 17.2839 73.2142 19.812 74.7475C27.4172 79.3602 37.2633 81.1809 46.5853 79.6989C59.0712 77.7136 69.9161 69.6884 75.7434 58.1214C76.3397 56.9379 76.8275 55.897 76.8275 55.8082C76.8275 55.7196 77.0959 55.0091 77.4242 54.2294C77.7522 53.4495 78.1573 52.2912 78.3239 51.6553C78.4908 51.0193 78.816 49.7749 79.0466 48.8901C79.8058 45.9761 80.0883 42.9245 79.9764 38.8468C79.8581 34.5269 79.6937 33.4811 78.3446 28.4554C77.6551 25.8867 75.4593 21.086 73.8625 18.6556C70.5314 13.5854 67.5257 10.5116 62.1511 6.67846C58.9408 4.38895 52.1927 1.56664 48.2753 0.874978C43.3116 -0.00151306 40.3815 -0.182255 36.801 0.16731ZM35.6278 7.9111C35.3227 8.24786 35.2834 8.63923 35.2339 11.8394L35.1789 15.3934L34.2555 15.7951C33.7476 16.0158 32.8517 16.3816 32.2647 16.6079C31.6776 16.834 29.9965 17.5705 28.5289 18.2443L25.8604 19.4695L23.3275 16.8833C21.6162 15.1362 20.6701 14.2972 20.4109 14.2972C20.1514 14.2972 19.1155 15.2185 17.2067 17.1476C14.8377 19.5416 14.3862 20.0825 14.3862 20.5262C14.3862 20.9667 14.7854 21.4557 16.7877 23.4686C18.1086 24.7962 19.1893 25.9655 19.1893 26.0669C19.1893 26.1683 18.8319 26.984 18.3952 27.8793C17.3833 29.9541 15.9872 33.1305 15.9872 33.3582C15.9872 33.4542 15.8173 33.928 15.6095 34.411L15.2319 35.2889H11.617C8.08314 35.2889 7.99597 35.2978 7.72522 35.6843C7.3109 36.2758 7.31321 44.0232 7.72771 44.4379C7.96306 44.673 8.56488 44.7173 11.5308 44.7173C14.3951 44.7173 15.0944 44.7657 15.2687 44.9758C15.3866 45.118 15.7086 45.8185 15.984 46.5324C16.5138 47.9058 17.7092 50.6181 18.6341 52.5447C18.9392 53.1807 19.1892 53.8694 19.1892 54.0752C19.1893 54.3228 18.3772 55.2315 16.7877 56.7625C13.5355 59.8952 13.5011 59.488 17.3268 63.1562C18.9442 64.7071 20.431 66.0022 20.631 66.0344C20.9005 66.0778 21.6283 65.4452 23.4451 63.5883C24.7929 62.2109 25.9956 61.0837 26.118 61.0837C26.2402 61.0837 26.5926 61.1978 26.9009 61.3372C27.6668 61.6834 29.7551 62.5635 31.9978 63.4851C33.0252 63.9075 34.166 64.3814 34.5328 64.5386L35.1999 64.8243V68.2136C35.1999 71.5148 35.2919 72.1684 35.8048 72.5108C35.9124 72.5827 37.8159 72.6427 40.0346 72.6443L44.0689 72.6469L44.4375 72.1782C44.7817 71.7406 44.8063 71.4803 44.8063 68.26V64.8106L46.127 64.2086C46.8533 63.8776 47.6339 63.5501 47.8615 63.4809C48.4754 63.2939 51.8556 61.8252 53.0569 61.2236L54.1026 60.6997L56.7171 63.2934C58.2339 64.798 59.4729 65.8869 59.668 65.8869C59.8666 65.8869 61.241 64.6507 63.0153 62.8764C65.9042 59.9875 66.0212 59.8429 65.912 59.2969C65.8264 58.8686 65.1995 58.1506 63.3741 56.3894L60.9501 54.0506L61.7811 52.0968C62.2381 51.0223 62.9198 49.4227 63.2957 48.5421C63.6718 47.6615 64.1126 46.5671 64.2754 46.1101C64.4381 45.6531 64.6776 45.1909 64.8074 45.0831C64.961 44.9557 66.2274 44.887 68.431 44.8865C71.3777 44.886 71.8658 44.846 72.1823 44.5793C72.5274 44.2883 72.5477 44.0616 72.5802 40.1374C72.6117 36.3643 72.5865 35.9709 72.2919 35.6456C71.9896 35.3115 71.7461 35.2889 68.4451 35.2889C64.412 35.2889 64.8783 35.5015 64.0852 33.3014C63.8267 32.5845 62.9856 30.6849 62.216 29.0801C61.4465 27.4755 60.8169 26.0974 60.8169 26.0177C60.8169 25.8656 62.3703 24.2894 64.5241 22.2561C65.51 21.3251 65.798 20.9414 65.798 20.5588C65.798 20.1567 65.2721 19.5423 62.9835 17.2697C60.6299 14.9326 60.0834 14.4751 59.6456 14.4751C59.2101 14.4751 58.7179 14.88 56.7253 16.8767C54.2903 19.3167 53.9596 19.5225 53.2515 19.0385C52.8671 18.7757 49.5001 17.2721 46.6297 16.0817L44.8063 15.3254V11.818C44.8063 7.14615 45.2475 7.53717 39.9748 7.53717C36.1277 7.53717 35.953 7.55211 35.6278 7.9111Z" fill="#FFD700"/>
<path fill-rule="evenodd" clip-rule="evenodd" d="M35.0729 22.2946C32.5791 22.9335 28.9424 25.253 27.5296 27.1054C25.4386 29.8466 23.6818 34.2382 23.3302 37.6014L23 40.7592L40.3243 40.6243L57.6485 40.4898L57.808 38.268C57.9138 36.7954 57.7845 36.159 57.4247 36.3814C57.1016 36.5807 56.8798 36.2383 56.8767 35.5365C56.8691 33.723 54.637 29.3365 52.5418 27.0169C49.7004 23.8725 45.7617 22.2 40.7812 22.0242C38.5322 21.945 35.9633 22.0666 35.0729 22.2946ZM34.6369 23.7431C33.2257 24.2497 31.3534 25.1748 30.4773 25.7984C28.258 27.3788 25.9002 31.2496 24.9617 34.8521C23.5582 40.2404 21.9256 39.7231 40.3284 39.7231H56.4867L56.1361 37.2953C55.6797 34.1349 53.8743 30.1854 51.8114 27.8363C48.1257 23.6384 40.1955 21.7482 34.6369 23.7431ZM38.1402 28.2227C38.1402 28.6444 38.3319 28.9894 38.5665 28.9894C38.8006 28.9894 38.9923 28.6444 38.9923 28.2227C38.9923 27.801 38.8006 27.456 38.5665 27.456C38.3319 27.456 38.1402 27.801 38.1402 28.2227ZM40.6959 29.245C40.6959 29.6666 40.8875 30.0117 41.1221 30.0117C41.3562 30.0117 41.5479 29.6666 41.5479 29.245C41.5479 28.8233 41.3562 28.4783 41.1221 28.4783C40.8875 28.4783 40.6959 28.8233 40.6959 29.245ZM43.7626 29.7561C43.7626 30.1778 43.9543 30.5228 44.1889 30.5228C44.423 30.5228 44.6147 30.1778 44.6147 29.7561C44.6147 29.3344 44.423 28.9894 44.1889 28.9894C43.9543 28.9894 43.7626 29.3344 43.7626 29.7561ZM36.0957 30.2672C36.0957 30.6889 36.2874 31.0339 36.522 31.0339C36.7561 31.0339 36.9477 30.6889 36.9477 30.2672C36.9477 29.8455 36.7561 29.5005 36.522 29.5005C36.2874 29.5005 36.0957 29.8455 36.0957 30.2672ZM38.6513 30.7784C38.6513 31.2 38.843 31.545 39.0776 31.545C39.3117 31.545 39.5034 31.2 39.5034 30.7784C39.5034 30.3567 39.3117 30.0117 39.0776 30.0117C38.843 30.0117 38.6513 30.3567 38.6513 30.7784ZM42.7404 31.8006C42.7404 32.2223 42.9321 32.5673 43.1667 32.5673C43.4008 32.5673 43.5924 32.2223 43.5924 31.8006C43.5924 31.3789 43.4008 31.0339 43.1667 31.0339C42.9321 31.0339 42.7404 31.3789 42.7404 31.8006ZM40.6959 32.8229C40.6959 33.2446 40.8875 33.5896 41.1221 33.5896C41.3562 33.5896 41.5479 33.2446 41.5479 32.8229C41.5479 32.4012 41.3562 32.0562 41.1221 32.0562C40.8875 32.0562 40.6959 32.4012 40.6959 32.8229ZM36.0957 33.8451C36.0957 34.2668 36.2874 34.6118 36.522 34.6118C36.7561 34.6118 36.9477 34.2668 36.9477 33.8451C36.9477 33.4235 36.7561 33.0784 36.522 33.0784C36.2874 33.0784 36.0957 33.4235 36.0957 33.8451ZM38.6513 34.3563C38.6513 34.778 38.843 35.123 39.0776 35.123C39.3117 35.123 39.5034 34.778 39.5034 34.3563C39.5034 33.9346 39.3117 33.5896 39.0776 33.5896C38.843 33.5896 38.6513 33.9346 38.6513 34.3563ZM43.2515 34.3563C43.2515 34.778 43.4432 35.123 43.6778 35.123C43.9119 35.123 44.1036 34.778 44.1036 34.3563C44.1036 33.9346 43.9119 33.5896 43.6778 33.5896C43.4432 33.5896 43.2515 33.9346 43.2515 34.3563ZM23.2862 38.7009C23.2862 39.9659 23.3859 40.4832 23.5081 39.8509C23.6297 39.2187 23.6297 38.1836 23.5081 37.5508C23.3859 36.9181 23.2862 37.4358 23.2862 38.7009ZM23.6762 42.2451C22.8344 43.8183 23.0567 45.2244 24.2834 46.0831C25.2495 46.7599 27.6825 46.879 40.5502 46.879H55.6812L56.7929 45.6962C57.7318 44.6964 58.5072 41.5049 57.5877 42.425C57.4134 42.5988 56.937 42.4071 56.5292 41.9987C55.9117 41.3818 53.1204 41.2565 39.9961 41.2565C24.9075 41.2565 24.1817 41.3005 23.6762 42.2451ZM24.4174 43.3256C23.6348 45.7913 24.2318 45.8818 40.4112 45.7366C53.8386 45.616 55.5519 45.5076 56.0298 44.7496C56.4198 44.1316 56.3825 43.6757 55.8954 43.0884C55.3096 42.3831 53.2651 42.2788 39.9864 42.2788C25.0793 42.2788 24.7424 42.3013 24.4174 43.3256ZM23.2469 44.0678C23.2571 44.9111 23.3716 45.1943 23.5014 44.697C23.6312 44.1996 23.6226 43.5096 23.4825 43.1636C23.3425 42.8175 23.2367 43.2244 23.2469 44.0678ZM25.3088 47.732C24.4051 48.0955 23.1472 50.668 23.1472 52.1513C23.1472 53.8876 25.0006 56.041 27.4514 57.1547C29.3022 57.995 30.9854 58.1029 42.4424 58.1126C54.3722 58.1228 55.4205 58.0518 56.3032 57.1691C57.6046 55.8677 58.2041 50.9685 57.2953 49.0661C56.1417 46.6515 53.0647 47.0083 52.6957 49.5997C52.4554 51.2854 51.1255 50.9312 50.6384 49.0513C50.3567 47.9641 49.8952 47.3901 49.3023 47.3901C47.8343 47.3901 47.1704 48.4701 47.1704 50.8571C47.1704 53.6678 46.0413 53.5651 45.5777 50.7125C45.0645 47.5562 44.4956 47.385 34.6778 47.4305C29.8819 47.4525 25.6661 47.5884 25.3088 47.732ZM25.2807 49.5951C23.6916 51.287 23.8863 52.8807 25.9165 54.7954C28.1956 56.9442 29.2792 57.0893 43.1299 57.096C56.8384 57.1026 56.5194 57.2283 56.269 51.9213C56.1335 49.06 55.992 48.6679 55.0929 48.6679C54.432 48.6679 54.0144 49.0615 53.9122 49.7807C53.6883 51.3539 52.5183 52.1605 51.0105 51.7822C50.0807 51.5487 49.726 51.1178 49.726 50.2218C49.726 49.5409 49.496 48.8417 49.2149 48.6679C48.9102 48.4793 48.7037 49.0998 48.7037 50.2049C48.7037 52.6849 47.9059 54.0348 46.4405 54.0348C45.1294 54.0348 44.6147 53.1868 44.6147 51.0283C44.6147 48.5683 44.0346 48.4124 34.8899 48.4124C26.6684 48.4124 26.3561 48.4507 25.2807 49.5951ZM23.2658 51.9903C23.2658 52.9742 23.3711 53.3765 23.4994 52.8848C23.6282 52.393 23.6282 51.5875 23.4994 51.0958C23.3711 50.6041 23.2658 51.0064 23.2658 51.9903Z" fill="#FFD700"/>
</svg>
