<svg width="147" height="139" viewBox="0 0 147 139" fill="none" xmlns="http://www.w3.org/2000/svg">
<path fill-rule="evenodd" clip-rule="evenodd" d="M30.257 4.951C13.363 17.371 2.16 37.084 0.615999 57.109L0 65.103L23.34 64.834L46.681 64.565L48.323 59.065C50.65 51.273 52.795 47.553 56.805 44.353C58.727 42.819 60.299 41.169 60.299 40.685C60.299 39.57 38.428 1.263 37.444 0.654999C37.043 0.406999 33.808 2.34 30.257 4.951ZM108.96 2.282C104.772 8.977 87.299 39.971 87.299 40.705C87.299 41.178 88.878 42.825 90.807 44.364C94.88 47.614 98.75 54.727 99.769 60.833L100.481 65.101L123.64 64.833L146.799 64.565L146.62 56.878C146.18 38.021 133.804 16.425 116.467 4.264L110.388 0L108.96 2.282ZM25.364 15.815C19.314 21.925 15.575 26.737 12.972 31.765C9.205 39.038 5.299 51.999 5.299 57.225V60.065H24.116H42.934L44.627 54.694C45.605 51.59 48.004 47.41 50.309 44.79C52.504 42.298 54.299 39.931 54.299 39.531C54.299 37.882 36.065 7.065 35.089 7.065C34.506 7.065 30.13 11.003 25.364 15.815ZM102.416 22.915C97.402 31.633 93.312 39.171 93.327 39.665C93.342 40.16 94.736 41.915 96.425 43.565C99.918 46.979 102.73 52.06 103.756 56.815L104.458 60.065H123.378H142.299V56.775C142.299 47.501 134.815 29.702 126.886 20.123C122.768 15.147 113.69 7.101 112.166 7.076C111.818 7.07 107.43 14.198 102.416 22.915ZM69.664 47.02C53.691 50.817 51.666 73.332 66.683 80.152C71.876 82.51 75.726 82.516 80.799 80.175C87.917 76.89 91.299 71.595 91.299 63.734C91.299 53.039 80.25 44.504 69.664 47.02ZM67.603 53.021C63.254 55.673 61.186 59.137 61.121 63.882C61.018 71.333 66.546 77.065 73.835 77.065C81.25 77.065 86.81 71.094 86.591 63.366C86.472 59.194 84.153 55.557 79.995 53.021C75.931 50.543 71.667 50.543 67.603 53.021ZM56.489 93.815C54.344 97.528 49.091 106.594 44.815 113.963L37.04 127.361L39.348 129.102C44.747 133.174 63.597 138.065 73.895 138.065C84.239 138.065 106.348 132.121 109.319 128.541C110.154 127.535 107.872 122.751 99.709 108.393C93.82 98.038 88.479 88.99 87.838 88.288C86.896 87.255 85.975 87.302 83.018 88.538C78.355 90.486 69.276 90.5 64.645 88.565C62.67 87.74 60.905 87.065 60.721 87.065C60.537 87.065 58.633 90.102 56.489 93.815ZM60.976 95.304C60.215 96.547 56.766 102.515 53.312 108.565C49.859 114.615 46.156 121.028 45.084 122.815L43.135 126.066L47.495 127.935C62.855 134.519 84.544 134.604 99.624 128.14L104.4 126.093L101.919 121.829C100.554 119.484 96.336 112.165 92.544 105.565C85.907 94.011 85.542 93.583 82.725 94.043C78.183 94.785 68.095 94.648 65.08 93.804C62.864 93.183 62.104 93.461 60.976 95.304Z" fill="black"/>
</svg>
