<svg width="203" height="174" viewBox="0 0 203 174" fill="none" xmlns="http://www.w3.org/2000/svg">
<path fill-rule="evenodd" clip-rule="evenodd" d="M69.5139 3.10033C65.9769 5.47133 63.6789 7.95433 62.2919 10.9043L60.2579 15.2313L57.2768 12.4463C52.9058 8.36333 47.0149 7.08433 40.2009 8.74133C35.5729 9.86633 34.7369 10.4093 34.9289 12.1663C35.0729 13.4953 34.4369 14.4833 33.1789 14.8823C30.9029 15.6043 30.6969 17.9273 32.2629 25.2303C33.1329 29.2853 33.8529 30.4023 36.2299 31.3873C37.8279 32.0493 39.3899 33.5543 39.7029 34.7333C43.9259 50.6563 45.2689 54.3413 47.2309 55.3913C48.6359 56.1433 49.3128 55.9973 49.9828 54.7993C50.5518 53.7843 51.8858 53.3303 53.6788 53.5433C56.1478 53.8353 56.6459 54.5073 57.8239 59.1313C58.5609 62.0223 59.8779 65.4783 60.7509 66.8113C64.2169 72.1013 63.4919 75.9053 57.1429 85.7523C53.9079 90.7703 49.8979 96.3253 48.2309 98.0983C46.5649 99.8713 45.2009 102.048 45.2009 102.936C45.2009 103.824 46.8319 108.224 48.8259 112.713C57.3699 131.953 57.9439 133.685 56.7429 136.602C55.2889 140.133 50.2549 145.375 48.3179 145.375C47.4879 145.375 45.2089 144.315 43.2549 143.019C41.2999 141.724 37.6359 139.497 35.1109 138.071C31.2249 135.876 30.2058 134.622 28.4608 129.885L26.3999 124.29L28.6119 122.842C29.8279 122.045 31.8378 119.586 33.0788 117.378C34.9228 114.098 35.2299 112.411 34.7559 108.16C34.0799 102.086 30.6429 94.3753 28.6119 94.3753C27.8359 94.3753 27.2009 93.9773 27.2009 93.4923C27.2009 92.5643 24.4109 91.4883 20.2009 90.7923C16.0109 90.0993 8.46485 92.3863 5.60885 95.2133C0.154851 100.614 -1.66415 110.867 1.68185 117.339C3.74785 121.334 9.25285 125.347 13.6459 126.06C17.9089 126.752 19.2119 128.709 20.0819 135.724C20.5799 139.737 21.2279 141.026 23.3879 142.295C24.8659 143.164 30.5879 147.137 36.1039 151.125C41.6189 155.113 46.7899 158.375 47.5949 158.375C48.3999 158.375 49.7519 157.681 50.5999 156.833C51.9899 155.443 52.3859 155.45 54.6049 156.904C57.7659 158.975 61.0369 157.443 61.8209 153.525C62.3209 151.025 67.1919 144.375 68.5219 144.375C69.5869 144.375 74.4908 161.908 75.0938 167.875L75.7009 173.875H82.1768C88.2358 173.875 88.6969 173.714 89.3339 171.375C89.7089 170 91.1508 165.05 92.5388 160.375C94.1778 154.857 95.0869 149.299 95.1299 144.533C95.1669 140.494 95.4179 136.833 95.6879 136.396C95.9579 135.959 97.7139 135.314 99.5889 134.962C103.833 134.166 104.613 133.19 106.263 126.616C107.285 122.548 107.314 121.088 106.392 120.166C104.649 118.423 104.854 104.272 106.673 100.766C107.483 99.2053 108.434 96.0043 108.787 93.6523C109.139 91.2993 109.714 89.3973 110.065 89.4243C110.415 89.4503 112.726 91.9433 115.201 94.9643C122.255 103.572 122.188 105.86 114.475 119.466C110.589 126.322 108.082 131.928 108.007 133.928C107.878 137.349 109.908 143.375 111.189 143.375C112.23 143.375 117.67 151.548 117.845 153.375C117.924 154.2 118.036 155.422 118.095 156.09C118.301 158.446 122.231 159.697 124.915 158.26C127.058 157.114 127.504 157.165 128.34 158.658C128.868 159.603 130.418 160.375 131.784 160.375C134.56 160.375 143.195 156.292 144.989 154.131C145.628 153.361 150.212 150.8 155.176 148.442C163.811 144.338 164.779 143.389 164.257 139.546C163.967 137.41 167.227 124.049 168.376 122.665C168.953 121.969 169.165 120.723 168.847 119.896C168.468 118.907 169.287 117.865 171.235 116.857C172.886 116.004 174.201 114.511 174.201 113.491C174.201 111.816 183.256 104.746 187.201 103.34C191.45 101.826 194.201 99.8773 194.201 98.3823C194.201 97.4623 196.001 95.2633 198.201 93.4953C202.711 89.8713 203.076 88.4773 200.198 85.8733C198.257 84.1153 198.049 84.1403 193.392 86.6753C190.646 88.1693 187.726 89.0633 186.575 88.7623C185.323 88.4353 184.038 88.9253 183.179 90.0553C181.996 91.6133 181.999 91.6953 183.199 90.6253C185.54 88.5373 187.231 89.2043 188.737 92.8073C189.525 94.6943 190.628 96.5213 191.186 96.8663C192.527 97.6943 192.493 100.375 191.142 100.375C190.56 100.375 190.342 99.9563 190.658 99.4443C190.975 98.9323 190.707 98.1883 190.063 97.7903C189.358 97.3543 189.159 97.4983 189.563 98.1513C189.932 98.7483 189.769 99.5243 189.201 99.8753C188.633 100.226 188.427 100.932 188.744 101.444C189.06 101.956 188.79 102.375 188.143 102.375C187.46 102.375 187.187 101.537 187.491 100.374C187.779 99.2733 187.678 98.5803 187.266 98.8353C186.427 99.3543 179.922 92.9893 180.597 92.3093C180.834 92.0703 179.662 91.7763 177.992 91.6563C174.156 91.3783 171.201 92.9253 171.201 95.2103C171.201 96.1813 170.639 97.5813 169.951 98.3223C168.946 99.4043 168.959 99.5223 170.014 98.9243C170.741 98.5113 172.08 98.8343 173.014 99.6473C173.942 100.454 175.316 101.303 176.069 101.534C177.541 101.986 170.144 107.375 168.051 107.375C167.395 107.375 166.052 108.105 165.067 108.996C164.082 109.888 162.584 110.352 161.738 110.028C158.944 108.955 160.075 105.724 164.201 102.994C167.84 100.585 169.936 98.2763 166.951 99.9643C159.054 104.427 156.773 109.501 161.803 111.414C163.255 111.966 164.181 112.949 163.899 113.639C161.995 118.292 161.995 118.375 163.894 118.375C165.907 118.375 168.201 120.145 168.201 121.697C168.201 122.205 167.532 122.064 166.714 121.386C165.896 120.707 164.489 120.434 163.587 120.78C162.685 121.126 161.265 120.843 160.43 120.15C159.131 119.072 159.013 119.206 159.608 121.082C160.047 122.466 159.299 126.101 157.574 130.961C154.867 138.586 154.799 138.669 149.273 141.131C146.208 142.496 141.29 144.761 138.344 146.164L132.986 148.715L129.631 144.795C122.965 137.008 123.036 136.212 131.755 120.877C135.988 113.431 139.451 106.242 139.451 104.9C139.451 103.559 138.321 101.118 136.94 99.4773C135.56 97.8363 132.296 92.3043 129.688 87.1843C127.081 82.0643 124.58 77.4103 124.131 76.8413C123.101 75.5363 124.302 70.7533 127.827 62.1253C130.069 56.6393 131.002 55.3753 132.811 55.3753C134.036 55.3753 135.723 55.1123 136.561 54.7903C138.285 54.1293 143.673 41.8153 144.728 36.1253C145.131 33.9503 146 32.3753 146.797 32.3753C147.552 32.3753 149.584 31.1113 151.314 29.5663C153.833 27.3143 154.55 25.7753 154.921 21.8163C155.308 17.6853 154.959 16.2533 152.793 13.0813C151.367 10.9943 150.201 8.67033 150.201 7.91833C150.201 5.67633 137.85 6.00333 133.216 8.36733C128.961 10.5383 124.48 15.4143 123.631 18.7963C122.932 21.5853 127.592 29.7113 130.909 31.4863C133.516 32.8823 133.744 34.7733 131.738 38.3753C130.409 40.7613 130.312 40.7843 129.609 38.8753C123.984 23.5933 114.746 15.0923 100.74 12.3083C95.5479 11.2763 94.2469 10.5763 92.4629 7.85333C90.1659 4.35033 83.7719 0.877334 78.2009 0.107334C75.3909 -0.280666 73.6779 0.309335 69.5139 3.10033ZM78.4968 4.01634C76.7738 5.38833 76.7779 5.49533 78.6029 6.66033C81.5579 8.54733 84.6459 12.2833 85.2409 14.6903C85.6719 16.4353 86.6279 16.9373 89.9909 17.1823C93.3189 17.4263 94.2009 17.1533 94.2009 15.8833C94.2009 11.4513 87.7158 4.37833 82.4968 3.11833C81.2858 2.82633 79.4858 3.23033 78.4968 4.01634ZM67.7009 6.37533C67.3609 6.92533 67.5329 7.37533 68.0829 7.37533C68.6329 7.37533 69.3609 6.92533 69.7009 6.37533C70.0409 5.82533 69.8688 5.37533 69.3188 5.37533C68.7688 5.37533 68.0409 5.82533 67.7009 6.37533ZM66.6009 10.7753C64.5229 12.8533 63.2009 15.1603 63.2009 16.7103C63.2009 19.6233 65.0119 24.8973 65.7569 24.1523C66.0319 23.8773 65.8679 22.5773 65.3929 21.2643C64.1849 17.9223 65.3099 14.3643 68.2249 12.3133C71.0499 10.3263 76.6859 8.78133 75.7829 10.2423C75.4449 10.7893 76.1448 10.9413 77.4408 10.6023C79.5848 10.0413 79.5518 9.96033 76.6918 8.74033C72.0368 6.75633 70.2629 7.11333 66.6009 10.7753ZM134.651 9.78233C130.664 11.5183 126.201 16.8903 126.201 19.9523C126.201 22.0833 126.653 22.3773 129.951 22.3893C135.87 22.4103 137.973 23.3303 138.697 26.2143C139.467 29.2823 141 31.3753 142.478 31.3753C143.046 31.3753 142.74 30.5233 141.798 29.4823C140.856 28.4423 139.744 26.3043 139.327 24.7323C138.625 22.0913 138.118 21.8313 132.634 21.2933C126.044 20.6473 127.094 20.1083 134.451 20.3603C138.731 20.5073 139.201 20.3053 139.201 18.3173C139.201 17.0963 140.746 14.6543 142.66 12.8493C146 9.69933 146.043 9.56633 143.91 8.99533C140.569 8.09933 138.017 8.31633 134.651 9.78233ZM43.7009 10.1333C42.6009 10.3953 40.4639 11.4873 38.9509 12.5603C36.6979 14.1583 36.2019 15.2673 36.2069 18.6933C36.2139 24.2783 37.8949 30.0443 39.7209 30.7443C40.7959 31.1573 41.2199 30.5683 41.2709 28.5943C41.3329 26.2093 41.4399 26.1213 42.1469 27.8753C42.8939 29.7313 42.9789 29.6953 43.3259 27.3753C43.6499 25.2133 44.5129 24.6963 49.7009 23.5523C58.0399 21.7133 61.0309 20.2363 55.2009 20.8353L50.7009 21.2973L54.7009 20.2043C59.8229 18.8033 59.7639 18.8843 57.8269 15.9273C55.2329 11.9683 48.1689 9.07033 43.7009 10.1333ZM80.8679 11.7893C81.3699 13.2183 81.2049 13.4953 80.2159 12.8853C79.3729 12.3633 79.1318 12.4543 79.5528 13.1353C79.9158 13.7233 79.6699 14.3853 79.0059 14.6073C78.3019 14.8413 78.1998 15.2563 78.7608 15.6033C79.2898 15.9303 80.4949 15.6333 81.4379 14.9443C82.9659 13.8273 82.9909 13.4833 81.6739 11.7833C80.2209 9.90733 80.2069 9.90734 80.8679 11.7893ZM67.8559 14.2043C64.4369 17.9813 66.7669 22.3753 72.1889 22.3753C74.0289 22.3753 75.0629 21.9613 74.6989 21.3713C74.3579 20.8193 73.0788 20.6193 71.8568 20.9253C69.9538 21.4033 69.6008 21.0433 69.4018 18.4293C69.2738 16.7493 69.5139 15.3423 69.9349 15.3013C70.3559 15.2603 71.7408 15.0333 73.0118 14.7983C74.2828 14.5623 75.0899 14.7453 74.8059 15.2053C74.5219 15.6653 74.9198 16.0423 75.6908 16.0423C76.7408 16.0423 76.8459 15.5813 76.1119 14.2083C74.8319 11.8163 70.0189 11.8143 67.8559 14.2043ZM142.856 14.2043C141.009 16.2443 140.6 21.3753 142.284 21.3753C142.88 21.3753 143.194 20.8533 142.981 20.2143C142.547 18.9123 145.661 15.2943 148.701 13.5703C150.524 12.5363 150.427 12.4333 147.606 12.4053C145.845 12.3883 143.797 13.1643 142.856 14.2043ZM95.1269 17.7543C95.0859 20.0213 94.8639 22.8883 94.6329 24.1253C94.3439 25.6773 94.6978 26.3753 95.7748 26.3753C96.7908 26.3753 97.1559 26.9863 96.8209 28.1253C94.8439 34.8483 93.0918 43.1213 92.5518 48.2923C91.8478 55.0283 91.3359 55.7113 85.4189 57.7983C81.5539 59.1623 81.1129 59.1173 78.0429 57.0473C75.2379 55.1573 74.3179 53.3763 71.5339 44.4413C69.7509 38.7193 68.4929 33.7123 68.7379 33.3153C68.9829 32.9183 68.1039 31.8863 66.7849 31.0223C64.4339 29.4823 64.3449 29.5363 62.3799 33.7173C59.7089 39.4013 58.2858 47.8423 59.0658 53.3753C59.6578 57.5733 59.9308 57.9093 63.1218 58.3753C68.5938 59.1753 68.4369 61.9853 62.9509 61.4273C61.9879 61.3293 61.2009 61.7633 61.2009 62.3903C61.2009 63.0963 62.5849 63.4063 64.8259 63.2033C67.7409 62.9393 68.6009 63.2783 69.2239 64.9373C69.9169 66.7843 69.6819 66.9523 66.9719 66.5553C64.7229 66.2253 64.0639 66.4633 64.4039 67.4833C65.9769 72.2043 118.394 72.6113 123.066 67.9393C124.484 66.5203 124.231 66.3753 120.342 66.3753C116.788 66.3753 116.116 66.0753 116.414 64.6253C116.619 63.6263 117.502 62.9993 118.47 63.1653C119.844 63.4003 120.057 62.9053 119.59 60.5723C119.024 57.7413 119.092 57.6903 123.326 57.7823C128.314 57.8903 128.925 56.7783 127.266 50.6173C126.179 46.5783 125.695 46.3173 119.451 46.3963C116.326 46.4363 116.201 46.2863 116.201 42.4883C116.201 40.3163 115.943 37.8673 115.629 37.0473C115.272 36.1173 115.802 35.3193 117.036 34.9273C119.622 34.1073 120.468 31.7423 119.094 29.1753C118.251 27.6003 118.31 26.9203 119.348 26.2633C120.193 25.7283 118.261 25.3393 114.201 25.2273L107.701 25.0493L113.189 24.4623L118.678 23.8753L116.072 21.8363C114.085 20.2803 112.429 19.8983 109.084 20.2243C105.675 20.5573 105.145 20.8283 106.701 21.4433C108.638 22.2103 108.634 22.2373 106.558 22.3053C105.379 22.3433 104.165 21.7253 103.86 20.9303C103.442 19.8393 104.336 19.4013 107.503 19.1433L111.701 18.8023L107.878 17.0453C105.776 16.0783 102.063 14.9153 99.6279 14.4603L95.2009 13.6333L95.1269 17.7543ZM80.4459 16.9583C79.7609 17.6913 79.2079 19.3223 79.2159 20.5833C79.2279 22.3653 79.4358 22.5523 80.1498 21.4233C80.6558 20.6243 80.8039 19.5423 80.4809 19.0183C80.1469 18.4783 80.4269 18.3963 81.1279 18.8303C81.8789 19.2943 82.1289 20.6283 81.7669 22.2343C81.1979 24.7533 81.2399 24.7863 82.6859 22.9343C85.6499 19.1363 83.5769 13.6063 80.4459 16.9583ZM146.203 17.8713C145.652 19.3203 145.215 21.0383 145.233 21.6903C145.272 23.1523 147.646 26.3753 148.684 26.3753C149.103 26.3753 148.931 25.7553 148.302 24.9973C146.785 23.1693 148.564 18.3753 150.76 18.3753C153.119 18.3753 151.918 15.9303 149.374 15.5563C147.796 15.3233 146.931 15.9543 146.203 17.8713ZM33.6329 21.5723C34.0119 24.4303 34.7759 27.4683 35.3299 28.3223C36.1069 29.5193 36.2109 29.3013 35.7829 27.3753C35.4779 26.0003 35.2219 22.9623 35.2149 20.6253C35.2069 18.1433 34.7308 16.3753 34.0718 16.3753C33.2898 16.3753 33.1549 17.9713 33.6329 21.5723ZM75.2009 18.8163C75.2009 19.6733 75.6509 20.3753 76.2009 20.3753C76.7509 20.3753 77.2009 19.9523 77.2009 19.4343C77.2009 18.9163 76.7509 18.2153 76.2009 17.8753C75.6509 17.5353 75.2009 17.9593 75.2009 18.8163ZM88.9509 19.1033C85.7919 19.4343 85.2009 19.8663 85.2009 21.8463C85.2009 24.5043 80.4129 29.0333 76.5869 29.9933C75.2339 30.3323 72.6959 30.3243 70.9449 29.9743C68.4949 29.4843 68.0359 29.6103 68.9469 30.5213C69.5979 31.1723 72.5088 31.8963 75.4158 32.1293C79.9018 32.4893 81.2299 32.1663 84.2009 29.9903C86.1259 28.5803 88.7218 26.9733 89.9688 26.4183C92.6828 25.2133 95.8719 18.0013 93.4509 18.5433C93.0389 18.6363 91.0139 18.8883 88.9509 19.1033ZM43.7009 22.3753C41.1529 23.4703 43.7819 23.4703 47.2009 22.3753C49.2109 21.7313 49.3089 21.5693 47.7009 21.5453C46.6009 21.5293 44.8009 21.9023 43.7009 22.3753ZM111.014 22.0583C111.735 22.3473 112.598 22.3113 112.93 21.9793C113.262 21.6473 112.672 21.4113 111.618 21.4543C110.453 21.5023 110.216 21.7393 111.014 22.0583ZM59.7379 24.2573C59.3459 25.4943 57.6259 28.0993 55.9179 30.0453C53.6919 32.5803 52.8369 34.5283 52.9049 36.9123C53.0789 43.0723 54.3119 42.6313 58.7659 34.8163C62.8029 27.7333 63.0369 26.9403 61.7969 24.5733L60.4519 22.0073L59.7379 24.2573ZM44.5349 30.4503L41.3679 32.4663L43.2989 39.1703C44.3619 42.8583 45.6909 47.5633 46.2539 49.6253C48.0259 56.1143 48.7628 53.7463 48.4328 42.6253C47.9718 27.0883 48.2839 28.0633 44.5349 30.4503ZM117.201 31.3753C117.201 31.9253 117.651 32.3753 118.201 32.3753C118.751 32.3753 119.201 31.9253 119.201 31.3753C119.201 30.8253 118.751 30.3753 118.201 30.3753C117.651 30.3753 117.201 30.8253 117.201 31.3753ZM81.2009 33.0333C78.9799 33.9783 76.2868 34.3013 73.8318 33.9183C70.5508 33.4053 70.0568 33.5583 70.5798 34.9213C70.9198 35.8053 72.3198 40.4323 73.6928 45.2023C77.0988 57.0403 80.2209 59.4903 86.7939 55.4813C89.4789 53.8443 89.8249 53.1523 89.4179 50.2353C89.1609 48.3873 88.5179 46.3323 87.9889 45.6693C87.4609 45.0053 87.2718 44.0703 87.5678 43.5903C87.8648 43.1093 87.5089 40.7273 86.7779 38.2963C86.0459 35.8643 85.4289 33.5003 85.4069 33.0423C85.3349 31.5303 84.7369 31.5293 81.2009 33.0333ZM136.398 38.1253C136.398 41.2883 135.929 45.8883 135.356 48.3483C133.395 56.7593 136.634 54.3623 140.619 44.4533C144.441 34.9473 143.929 32.3753 138.218 32.3753C136.669 32.3753 136.398 33.2323 136.398 38.1253ZM132.301 41.6923C131.586 43.7913 131.259 45.7663 131.573 46.0813C132.379 46.8873 134.353 41.3623 133.941 39.4543C133.749 38.5663 133.031 39.5473 132.301 41.6923ZM83.8389 41.8753C83.5229 42.7003 83.6998 43.3753 84.2318 43.3753C84.7648 43.3753 85.2009 42.7003 85.2009 41.8753C85.2009 41.0503 85.0239 40.3753 84.8079 40.3753C84.5919 40.3753 84.1559 41.0503 83.8389 41.8753ZM54.3389 47.1253C53.1409 49.4633 52.6079 51.3753 53.1549 51.3753C54.4579 51.3753 57.4389 45.5813 56.9199 44.0573C56.6979 43.4073 55.5369 44.7873 54.3389 47.1253ZM122.201 62.3753C124.158 63.6393 126.201 63.6393 126.201 62.3753C126.201 61.8253 124.963 61.3823 123.451 61.3903C121.308 61.4023 121.032 61.6203 122.201 62.3753ZM65.2009 72.7283C65.2009 73.6703 66.3399 74.5873 67.9509 74.9393C69.4639 75.2713 71.3489 75.7483 72.1419 76.0003C74.4189 76.7253 112.213 76.3793 117.188 75.5883C120.448 75.0703 121.774 74.3613 122.036 72.9953C122.354 71.3403 121.964 71.1973 118.768 71.7963C114.199 72.6543 74.6239 72.6263 69.2219 71.7623C65.9269 71.2363 65.2009 71.4103 65.2009 72.7283ZM65.0039 78.1193C63.6799 79.6513 54.7299 92.8683 52.8889 96.0123C52.5229 96.6373 52.8338 97.6553 53.5808 98.2753C54.6568 99.1683 55.7179 98.2713 58.6959 93.9473C60.7619 90.9473 63.0629 88.2583 63.8089 87.9723C64.7439 87.6133 64.9748 86.4973 64.5528 84.3863C64.1148 82.1963 64.4509 80.7563 65.7309 79.3423C66.7159 78.2533 67.2969 77.1383 67.0219 76.8633C66.7469 76.5883 65.8389 77.1533 65.0039 78.1193ZM85.9138 77.9963C84.3298 79.5793 85.3779 80.4853 88.4509 80.1883C90.2379 80.0163 91.6018 79.4253 91.4818 78.8753C91.2178 77.6703 86.9178 76.9913 85.9138 77.9963ZM121.201 78.3163C121.201 78.8343 121.702 79.5673 122.315 79.9463C122.981 80.3573 123.221 82.1923 122.91 84.5083C122.573 87.0243 122.827 88.6433 123.636 89.1283C124.32 89.5393 126.158 92.1253 127.719 94.8753C129.28 97.6253 130.682 100.043 130.836 100.249C130.989 100.454 131.829 100.348 132.701 100.013C134.019 99.5083 133.306 97.5423 128.494 88.4093C123.26 78.4743 121.201 75.6243 121.201 78.3163ZM81.3288 82.8753C80.6188 85.6253 79.8229 89.6423 79.5599 91.8013C79.2979 93.9603 78.6599 96.5183 78.1419 97.4853C76.6549 100.264 77.0298 101.233 79.3568 100.624C80.8348 100.237 81.2889 100.424 80.7979 101.217C80.3349 101.968 80.8949 102.37 82.3919 102.36C84.2499 102.347 84.4079 102.155 83.2009 101.375C81.9209 100.548 81.9599 100.403 83.4649 100.39C84.4349 100.382 86.1019 100.92 87.1689 101.587C88.2369 102.254 89.4098 102.499 89.7768 102.132C91.2198 100.689 94.1989 87.6423 94.1689 82.8973C94.1409 78.5063 93.9699 78.0953 92.8089 79.6253C91.9269 80.7873 90.1138 81.3753 87.4138 81.3753C84.3468 81.3753 83.2578 80.9453 82.9838 79.6253C82.7828 78.6623 82.0388 80.1253 81.3288 82.8753ZM97.6658 81.4873C96.8918 83.9243 99.4799 87.3503 100.657 85.4463C101.047 84.8153 100.797 84.4463 100.085 84.6003C99.3889 84.7513 98.6558 83.9753 98.4568 82.8753C98.1918 81.4163 98.3409 81.2363 99.0079 82.2093C99.7569 83.3013 100.026 83.2733 100.493 82.0573C101.076 80.5383 100.472 79.3753 99.1019 79.3753C98.6799 79.3753 98.0338 80.3253 97.6658 81.4873ZM95.3588 82.3753C95.3588 83.7503 95.5859 84.3133 95.8629 83.6253C96.1409 82.9383 96.1409 81.8133 95.8629 81.1253C95.5859 80.4383 95.3588 81.0003 95.3588 82.3753ZM120.924 82.7073C121.219 84.2523 120.889 85.3563 120.05 85.6293C119.085 85.9433 119.125 86.0373 120.19 85.9603C121.958 85.8323 122.799 82.5733 121.419 81.1933C120.793 80.5673 120.618 81.1033 120.924 82.7073ZM67.7318 82.3253C67.3638 82.9203 66.5989 83.1213 66.0319 82.7713C65.4039 82.3823 65.4448 82.9623 66.1358 84.2543C66.7608 85.4213 67.5069 86.3753 67.7949 86.3753C68.0829 86.3753 68.0099 85.8753 67.6319 85.2633C67.2539 84.6523 67.5519 83.7763 68.2939 83.3183C69.0359 82.8593 69.3639 82.2043 69.0219 81.8633C68.6809 81.5213 68.0998 81.7293 67.7318 82.3253ZM76.2009 86.3753C74.9189 87.2033 74.9549 87.3473 76.4509 87.3603C77.4139 87.3683 78.2009 86.9253 78.2009 86.3753C78.2009 85.1553 78.0879 85.1553 76.2009 86.3753ZM100.869 87.2983C99.8969 88.4833 100.12 88.6113 102.201 88.0623C103.576 87.6993 106.389 87.3963 108.451 87.3893C110.514 87.3813 112.201 86.9983 112.201 86.5363C112.201 85.0843 102.131 85.7613 100.869 87.2983ZM197.701 87.3753C198.041 87.9253 198.517 88.3753 198.76 88.3753C199.003 88.3753 199.201 87.9253 199.201 87.3753C199.201 86.8253 198.724 86.3753 198.142 86.3753C197.56 86.3753 197.361 86.8253 197.701 87.3753ZM59.9169 94.4753C57.8729 97.2253 56.2009 99.9763 56.2009 100.588C56.2009 101.2 58.0468 99.1233 60.3028 95.9733C65.3718 88.8933 65.0359 87.5863 59.9169 94.4753ZM74.5798 90.5543C73.9638 91.1483 71.6518 93.3783 69.4428 95.5093C66.4038 98.4423 65.2688 100.439 64.7768 103.718C63.9158 109.459 65.0449 112.051 71.2009 118.472C75.7779 123.246 76.2789 124.187 75.6669 126.862C73.4329 136.633 73.4969 137.714 76.7359 144.876C79.7489 151.537 79.9369 151.736 81.1289 149.509C81.9339 148.006 82.1699 145.18 81.7969 141.528C81.4789 138.419 81.0329 134.075 80.8069 131.875C80.2429 126.399 74.7579 113.955 72.7269 113.541C68.6649 112.713 68.9559 104.222 73.0899 102.91C74.5789 102.438 75.2569 101.067 75.7309 97.5753C76.0819 94.9903 76.5869 92.0883 76.8519 91.1253C77.3899 89.1773 76.2948 88.9023 74.5798 90.5543ZM97.1319 92.0563C96.6029 93.4473 96.6409 95.4023 97.2259 96.9403C97.8659 98.6253 97.8569 100.149 97.1989 101.378C96.3739 102.92 96.5389 103.225 98.1299 103.105C99.1929 103.025 99.8309 102.585 99.5479 102.127C99.2649 101.669 100.189 101.585 101.602 101.94C103.771 102.484 104.337 102.146 105.24 99.7733C105.828 98.2273 106.397 95.3803 106.505 93.4483C106.7 89.9533 106.678 89.9343 102.357 89.8363C98.6878 89.7533 97.8769 90.0983 97.1319 92.0563ZM12.0218 93.7773C8.18485 95.1473 5.20085 97.5283 5.20085 99.2203C5.20085 99.7643 4.73185 100.365 4.15785 100.556C3.58385 100.747 2.99385 102.041 2.84485 103.432C2.69685 104.822 2.29585 106.412 1.95385 106.965C1.00185 108.506 2.57785 110.37 5.27085 110.889C6.60385 111.145 7.88185 111.918 8.11085 112.605C8.82685 114.753 13.9698 119.375 15.6428 119.375C17.7829 119.375 16.6098 114.396 14.0388 112.568C13.0278 111.85 12.2009 110.612 12.2009 109.818C12.2009 108.752 12.7289 108.903 14.2239 110.398C15.8309 112.005 16.6539 112.203 18.2239 111.363C20.8779 109.942 20.7439 105.972 17.9509 103.3L15.7009 101.148L18.2009 101.884C22.6109 103.182 23.4609 104.464 22.8529 108.899C21.7669 116.819 24.5809 119.701 27.2069 113.36C27.9039 111.678 29.2879 110.361 30.5489 110.182C32.3349 109.927 32.6739 109.259 32.5429 106.252C32.3039 100.744 28.5159 95.6953 23.2729 93.8953C17.9788 92.0783 16.8128 92.0663 12.0218 93.7773ZM88.3588 95.3753C88.3588 96.7503 88.5859 97.3133 88.8629 96.6253C89.1409 95.9383 89.1409 94.8133 88.8629 94.1253C88.5859 93.4383 88.3588 94.0003 88.3588 95.3753ZM80.2839 95.7343C81.4789 96.7643 86.2009 97.2913 86.2009 96.3943C86.2009 95.8343 84.7759 95.3753 83.0339 95.3753C81.2929 95.3753 80.0549 95.5373 80.2839 95.7343ZM94.4649 100.125C93.7519 102.123 93.6819 103.375 94.2839 103.375C95.5769 103.375 96.4638 100.946 95.9968 98.6833C95.7228 97.3563 95.3159 97.7393 94.4649 100.125ZM49.4909 99.6363C48.3529 101.142 48.0369 105.375 49.0629 105.375C50.4039 105.375 52.2009 103.004 52.2009 101.234C52.2009 98.9613 50.6799 98.0633 49.4909 99.6363ZM60.3369 103.507C58.3439 104.255 58.1739 104.637 59.2509 105.935C60.3679 107.282 60.7119 107.293 61.9809 106.023C64.1069 103.897 63.1589 102.446 60.3369 103.507ZM135.233 104.314C133.985 106.647 135.731 108.25 137.538 106.429C138.425 105.535 138.258 105.425 136.835 105.967C135.185 106.596 135.102 106.428 136.12 104.527C136.753 103.343 137.046 102.375 136.771 102.375C136.496 102.375 135.804 103.248 135.233 104.314ZM52.0729 105.125C50.8299 106.711 50.8649 106.746 52.4509 105.503C54.1169 104.196 54.6459 103.375 53.8229 103.375C53.6159 103.375 52.8279 104.162 52.0729 105.125ZM97.7009 105.282C94.9509 105.608 93.1929 106.196 93.7949 106.587C95.1409 107.464 102.05 106.429 102.784 105.24C103.078 104.764 103.18 104.446 103.01 104.532C102.84 104.619 100.451 104.956 97.7009 105.282ZM122.828 105.845C123.169 106.733 123.876 107.317 124.399 107.142C125.898 106.643 125.468 104.909 123.757 104.552C122.688 104.33 122.4 104.731 122.828 105.845ZM74.2009 108.357C74.2009 110.079 74.8449 110.324 79.1179 110.228C83.0259 110.14 84.1348 109.734 84.5238 108.246C84.9578 106.588 84.3968 106.375 79.6068 106.375C74.8838 106.375 74.2009 106.625 74.2009 108.357ZM54.9118 108.084C55.5778 108.558 56.8418 110.665 57.7208 112.768C58.5988 114.871 59.5659 116.343 59.8689 116.04C60.7699 115.14 56.8279 108.016 55.2009 107.603C54.1269 107.331 54.0448 107.467 54.9118 108.084ZM50.5419 111.625C55.2259 122.752 56.5298 125.289 57.3178 124.802C58.6428 123.984 58.3849 120.154 56.6749 115.251C55.1339 110.834 52.9248 108.375 50.4958 108.375C49.4088 108.375 49.4179 108.953 50.5419 111.625ZM61.6839 110.375C62.0859 111.75 63.0909 113.55 63.9169 114.375C65.0749 115.532 65.0219 115.075 63.6829 112.375C61.4699 107.914 60.7539 107.198 61.6839 110.375ZM94.2009 109.375C94.2009 109.925 94.6239 110.375 95.1419 110.375C95.6599 110.375 96.3609 109.925 96.7009 109.375C97.0409 108.825 96.6168 108.375 95.7598 108.375C94.9028 108.375 94.2009 108.825 94.2009 109.375ZM98.9509 109.037C99.6389 109.315 100.764 109.315 101.451 109.037C102.139 108.76 101.576 108.533 100.201 108.533C98.8259 108.533 98.2639 108.76 98.9509 109.037ZM122.374 119.737C115.431 131.641 114.376 134.978 117.266 135.896C119.807 136.702 120.784 135.99 123.93 131.041C127.809 124.938 135.359 111.194 135.005 110.88C134.838 110.731 133.301 110.309 131.589 109.943C128.516 109.285 128.399 109.41 122.374 119.737ZM166.308 110.746C165.438 111.794 165.588 112.631 166.945 114.307C169.673 117.676 174.128 114.954 172.563 110.875C171.842 108.998 167.828 108.915 166.308 110.746ZM121.765 112.082C121.223 113.507 121.337 113.622 122.325 112.642C123.009 111.963 123.316 111.156 123.008 110.849C122.7 110.541 122.141 111.096 121.765 112.082ZM123.701 119.135C120.951 123.923 118.343 128.748 117.904 129.857C115.985 134.719 122.35 126.472 126.574 118.625C132.491 107.63 130.062 108.062 123.701 119.135ZM167.799 111.111C166.482 112.427 167.318 114.375 169.201 114.375C170.301 114.375 171.201 113.748 171.201 112.982C171.201 111.474 168.772 110.137 167.799 111.111ZM77.0019 111.907C76.7099 112.2 77.8239 115.81 79.4779 119.931C81.1329 124.052 82.6369 127.273 82.8209 127.089C83.3349 126.574 78.7918 111.375 78.1228 111.375C77.7988 111.375 77.2949 111.614 77.0019 111.907ZM84.6508 112.875C85.1118 113.975 86.1248 117.35 86.9008 120.375C88.8278 127.879 89.1589 128.751 89.8249 128.085C90.7899 127.119 87.1379 114.168 85.4209 112.467C83.9479 111.009 83.8828 111.043 84.6508 112.875ZM94.2009 112.281C94.2009 112.78 95.1009 112.952 96.2009 112.665C97.3009 112.377 98.2009 111.969 98.2009 111.758C98.2009 111.548 97.3009 111.375 96.2009 111.375C95.1009 111.375 94.2009 111.783 94.2009 112.281ZM2.20085 113.143C2.20085 113.565 3.36985 115.632 4.79985 117.735C7.37585 121.526 12.2539 124.375 16.1689 124.375C19.8879 124.375 18.2589 121.374 13.7069 119.84C12.0609 119.285 9.81085 117.396 8.70685 115.642C7.44185 113.631 5.86985 112.438 4.45085 112.414C3.21285 112.392 2.20085 112.721 2.20085 113.143ZM28.8078 113.957C27.9818 116.109 28.0189 116.226 29.4509 116.008C31.3269 115.724 33.2009 114.378 33.2009 113.316C33.2009 111.728 29.4538 112.274 28.8078 113.957ZM17.4269 114.524C17.7109 115.267 18.9569 120.262 20.1959 125.625C22.3389 134.904 23.2699 136.691 24.7309 134.326C25.1729 133.612 25.8349 133.657 26.8129 134.468C27.9909 135.446 28.1359 135.321 27.6269 133.766C26.1719 129.324 23.6369 125.373 22.2239 125.345C20.9469 125.319 20.9679 125.158 22.3559 124.348C23.8879 123.454 23.8779 123.031 22.2089 118.629C21.1599 115.861 19.6769 113.728 18.6579 113.524C17.5189 113.295 17.0889 113.643 17.4269 114.524ZM95.0139 115.058C95.7349 115.347 96.5978 115.311 96.9298 114.979C97.2618 114.647 96.6719 114.411 95.6179 114.454C94.4529 114.502 94.2159 114.739 95.0139 115.058ZM28.2139 117.346C27.0349 118.091 27.1769 118.253 28.8939 118.123C30.0869 118.033 30.8419 117.603 30.5729 117.167C29.9739 116.198 30.0359 116.194 28.2139 117.346ZM66.2009 116.942C66.2009 117.253 67.3759 119.049 68.8119 120.932C70.6289 123.313 71.2439 125.069 70.8329 126.703C70.5089 127.995 70.7969 129.808 71.4729 130.731C72.5589 132.217 72.8239 132.018 73.7679 129.001C74.7459 125.877 74.5489 125.203 71.4219 120.983C68.4209 116.931 66.2009 115.213 66.2009 116.942ZM94.9509 118.037C95.6389 118.315 96.7639 118.315 97.4509 118.037C98.1389 117.76 97.5759 117.533 96.2009 117.533C94.8259 117.533 94.2639 117.76 94.9509 118.037ZM59.9509 118.95C59.5389 119.367 59.2009 122.322 59.2009 125.516C59.2009 130.958 59.3899 131.421 62.2009 132.875C64.6539 134.144 65.2009 134.176 65.2009 133.056C65.2009 132.302 64.3228 130.89 63.2488 129.919C61.9208 128.716 61.2028 126.563 60.9988 123.172C60.8348 120.432 60.3629 118.532 59.9509 118.95ZM97.3899 120.103C94.6539 120.44 94.1339 120.89 94.3909 122.693C94.6049 124.195 95.3249 124.81 96.7009 124.667C97.8009 124.552 100.164 124.348 101.951 124.212C103.738 124.077 105.201 123.645 105.201 123.252C105.201 121.219 103.798 119.393 102.344 119.535C101.44 119.623 99.2109 119.879 97.3899 120.103ZM25.2009 121.434C25.2009 122.016 25.6509 122.215 26.2009 121.875C26.7509 121.535 27.2009 121.059 27.2009 120.816C27.2009 120.573 26.7509 120.375 26.2009 120.375C25.6509 120.375 25.2009 120.852 25.2009 121.434ZM115.765 122.082C115.223 123.507 115.337 123.622 116.325 122.642C117.009 121.963 117.316 121.156 117.008 120.849C116.7 120.541 116.141 121.096 115.765 122.082ZM62.2849 121.875C62.2849 122.425 63.1469 124.45 64.2009 126.375C65.2549 128.3 66.1169 129.425 66.1169 128.875C66.1169 128.325 65.2549 126.3 64.2009 124.375C63.1469 122.45 62.2849 121.325 62.2849 121.875ZM162.439 122.625C161.886 123.313 160.244 127.196 158.792 131.255L156.15 138.635L159.353 137.995C161.114 137.642 162.689 137.22 162.853 137.056C163.556 136.354 165.821 123.734 165.446 122.611C164.919 121.029 163.72 121.035 162.439 122.625ZM98.3168 127.684C98.2528 129.229 97.7778 130.232 97.2618 129.912C96.7448 129.593 96.3909 130.253 96.4759 131.378C96.5829 132.794 97.1028 133.233 98.1658 132.803C99.0098 132.461 100.344 132.075 101.13 131.943C102.542 131.708 103.994 129.106 104.131 126.566C104.169 125.846 103.744 125.54 103.185 125.885C102.626 126.231 102.427 126.932 102.744 127.444C103.06 127.956 102.842 128.375 102.26 128.375C101.678 128.375 101.169 127.588 101.131 126.625C101.071 125.141 100.94 125.179 100.266 126.875L99.4708 128.875L98.9519 126.875C98.5559 125.348 98.4058 125.539 98.3168 127.684ZM112.201 127.465C112.201 127.698 111.782 129.348 111.271 131.132C110.759 132.915 110.708 134.375 111.157 134.375C111.996 134.375 113.267 128.206 112.582 127.458C112.373 127.229 112.201 127.232 112.201 127.465ZM85.5339 129.95C85.2009 130.816 85.4408 133.231 86.0648 135.316C86.6898 137.401 87.2149 141.755 87.2309 144.991C87.2509 148.849 87.5639 150.359 88.1389 149.375C89.3689 147.271 89.7639 140.095 88.7409 138.44C88.2719 137.681 87.9628 135.106 88.0528 132.718C88.2148 128.443 86.7359 126.818 85.5339 129.95ZM67.4428 131.226C66.4708 131.826 66.5109 132.415 67.6299 133.934C68.9919 135.785 69.0908 135.791 69.7618 134.058C70.6048 131.884 69.1838 130.149 67.4428 131.226ZM83.2009 133.149C83.2009 134.859 83.6439 136.531 84.1859 136.866C84.8009 137.246 84.9349 136.236 84.5419 134.175C83.6999 129.753 83.2009 129.372 83.2009 133.149ZM68.9509 136.064C67.9879 136.316 67.2009 136.939 67.2009 137.448C67.2009 138.861 68.8069 138.554 70.2009 136.875C70.8859 136.05 71.2779 135.427 71.0729 135.491C70.8689 135.555 69.9139 135.813 68.9509 136.064ZM24.6469 137.462C24.2779 138.06 24.3799 138.954 24.8739 139.448C25.4049 139.979 25.7719 139.535 25.7719 138.361C25.7719 136.088 25.5869 135.941 24.6469 137.462ZM59.2009 137.187C59.2009 137.752 56.8889 140.743 54.0639 143.834C49.3039 149.042 49.0589 149.551 50.7239 150.768C52.2979 151.919 52.8839 151.667 55.4609 148.731C57.0789 146.889 58.8018 145.628 59.2898 145.93C59.7788 146.232 59.9309 145.835 59.6289 145.047C59.3149 144.23 60.1779 142.752 61.6399 141.601C64.1809 139.603 65.0469 137.375 63.2829 137.375C62.7779 137.375 61.6529 137.102 60.7829 136.768C59.9129 136.434 59.2009 136.623 59.2009 137.187ZM28.3679 138.318C29.0809 140.337 45.4969 150.479 46.4719 149.504C47.1129 148.863 45.0689 146.996 40.5769 144.117C30.1929 137.463 27.6359 136.249 28.3679 138.318ZM118.951 138.064C116.788 138.63 116.724 139.734 118.756 141.42C119.611 142.13 120.809 143.648 121.419 144.793C122.417 146.665 122.361 146.737 120.865 145.503C118.593 143.628 118.746 145.653 121.032 147.722C122.039 148.634 123.236 149.041 123.692 148.627C124.149 148.213 124.211 148.416 123.831 149.078C123.081 150.386 126.006 154.395 127.673 154.343C128.239 154.326 129.539 153.677 130.563 152.901C132.331 151.562 132.193 151.196 127.813 145.621C125.276 142.392 123.201 139.216 123.201 138.563C123.201 137.36 122.127 137.234 118.951 138.064ZM70.2009 139.57C70.2009 143.303 74.3439 154.375 75.7409 154.375C77.7839 154.375 77.5858 153.007 74.5268 146C71.5348 139.148 70.2009 137.165 70.2009 139.57ZM85.5609 147.375C85.5609 152.6 85.7299 154.738 85.9359 152.125C86.1419 149.512 86.1419 145.238 85.9359 142.625C85.7299 140.012 85.5609 142.15 85.5609 147.375ZM159.66 140.442C159.297 141.028 159.215 141.723 159.477 141.985C159.739 142.247 160.22 141.767 160.546 140.918C161.222 139.156 160.646 138.846 159.66 140.442ZM27.2129 141.041C27.2199 141.5 28.9019 143 30.9499 144.375C38.8889 149.705 39.0929 149.335 31.4509 143.469C29.1139 141.675 27.2069 140.582 27.2129 141.041ZM149.201 142.724C137.089 147.793 133.201 149.656 133.201 150.391C133.201 152.423 136.417 151.827 143.375 148.509C147.564 146.51 152.389 144.275 154.097 143.541C157.206 142.205 158.299 140.354 155.951 140.399C155.264 140.412 152.226 141.458 149.201 142.724ZM116.201 145.753C116.201 145.96 116.988 146.748 117.951 147.503C119.537 148.746 119.572 148.711 118.329 147.125C117.022 145.459 116.201 144.93 116.201 145.753ZM153.073 147.125C151.83 148.711 151.865 148.746 153.451 147.503C155.117 146.196 155.646 145.375 154.823 145.375C154.616 145.375 153.828 146.162 153.073 147.125ZM90.4438 149.625C89.8928 150.313 88.7048 153.446 87.8048 156.588C86.9038 159.73 85.9009 162.993 85.5769 163.838C85.1919 164.842 85.5649 165.375 86.6529 165.375C87.5689 165.375 88.0808 164.99 87.7898 164.518C86.9968 163.235 90.9679 150.14 92.4319 149.211C93.2459 148.694 93.2969 148.4 92.5729 148.39C91.9529 148.382 90.9948 148.938 90.4438 149.625ZM57.6419 154.843C55.9949 156.089 55.9488 156.316 57.3438 156.343C58.2478 156.361 59.2459 155.7 59.5629 154.875C60.2779 153.012 60.0679 153.008 57.6419 154.843ZM82.3959 155.875C82.4159 157.525 82.6399 158.079 82.8939 157.106C83.1479 156.133 83.1308 154.783 82.8568 154.106C82.5828 153.429 82.3759 154.225 82.3959 155.875ZM130.708 154.364C130.345 154.951 130.794 155.085 131.813 154.694C133.069 154.211 133.31 154.39 132.711 155.36C132.166 156.241 132.278 156.445 133.046 155.97C133.681 155.578 134.201 155.786 134.201 156.433C134.201 157.116 133.363 157.389 132.2 157.085C131.099 156.797 130.45 156.97 130.759 157.468C131.483 158.64 133.92 158.638 134.645 157.465C135.493 156.093 134.169 153.375 132.653 153.375C131.919 153.375 131.044 153.82 130.708 154.364ZM120.201 155.398C120.201 155.97 120.895 156.704 121.744 157.03C124.09 157.93 124.365 156.958 122.156 155.579C120.918 154.806 120.201 154.74 120.201 155.398ZM47.0139 156.058C47.7349 156.347 48.5979 156.311 48.9299 155.979C49.2619 155.647 48.6719 155.411 47.6179 155.454C46.4529 155.502 46.2159 155.739 47.0139 156.058ZM75.7348 158.529C77.0178 164.371 79.8439 171.756 80.9359 172.12C83.2819 172.902 83.4289 166.392 81.1739 161.581C78.0129 154.833 74.4888 152.857 75.7348 158.529ZM84.5368 168.942C84.2058 169.804 84.3328 170.907 84.8178 171.392C85.3288 171.903 85.7009 171.241 85.7009 169.825C85.7009 166.986 85.3808 166.743 84.5368 168.942Z" fill="white"/>
</svg>
