<svg width="152" height="181" viewBox="0 0 152 181" fill="none" xmlns="http://www.w3.org/2000/svg">
<path fill-rule="evenodd" clip-rule="evenodd" d="M67.9009 0.681869C66.7831 1.1707 66.5038 1.50762 66.7395 2.08079C67.4951 3.91775 67.4282 4.29441 66.1888 5.17889C64.2078 6.59282 62.7926 6.78623 61.2241 5.85759C59.8521 5.04553 59.8486 5.04598 59.0035 6.14771C58.5378 6.75488 57.6073 8.30305 56.9358 9.58804L55.7149 11.9244L52.8511 11.6321C49.8625 11.3265 48.8857 10.8827 48.8857 9.82958C48.8857 8.83736 47.307 6.01612 46.1747 4.98504C44.1449 3.1366 42.2887 2.49189 39.8279 2.78201C38.0047 2.99662 37.4108 2.90256 36.9315 2.32365C35.4612 0.546746 31.3989 -0.135933 29.147 1.0157C28.4927 1.35042 26.8894 1.64539 25.5839 1.67144C23.9066 1.705 22.6562 2.04413 21.3198 2.82926C19.1116 4.12617 18.1916 4.21051 17.0954 3.21652C16.0181 2.23931 15.3824 2.82396 13.8861 6.16493C12.567 9.11069 9.02283 23.1657 8.58356 27.1928C8.1152 31.4863 7.49263 33.9446 5.46986 39.4868C-1.0254 57.2841 -1.65324 67.3684 3.14572 76.8208C4.11547 78.7302 5.836 81.0118 9.20567 84.8571C13.1701 89.3815 28.098 99.6088 40.0738 106.006L42.0565 107.066L41.9102 121.187C41.7824 133.557 41.9798 138.903 42.954 149.44C44.3683 164.735 44.8943 168.705 46.6087 177.038L47.3811 180.792H48.9042C50.3661 180.792 50.4247 180.729 50.3524 179.246C50.311 178.396 49.7797 175.217 49.1725 172.181C48.5649 169.145 47.9274 165.405 47.7556 163.87L47.4432 161.079L49.1558 161.819C52.7343 163.366 60.6421 165.933 62.5442 166.165C63.6346 166.298 64.9234 166.491 65.408 166.594C70.5084 167.676 84.6356 167.851 90.3017 166.902C92.1191 166.597 94.3833 166.247 95.3333 166.124C97.3512 165.861 105.93 164.042 107.375 163.57C108.281 163.274 108.366 163.385 108.366 164.869C108.366 168.206 110.342 179.544 111.078 180.433C111.639 181.109 112.772 181.208 112.772 180.58C112.772 180.343 112.371 177.676 111.881 174.654C111.166 170.246 111.014 167.517 111.11 160.853L111.23 152.547L116.965 152.028C130.1 150.839 141.241 146.557 146.471 140.686C150.951 135.66 152.938 128.574 151.578 122.482C150.646 118.307 144.39 109.49 136.394 101.082C127.595 91.8291 120.004 86.01 109.749 80.6568C106.928 79.1846 104.522 77.8969 104.402 77.7958C104.28 77.6943 104.536 77.3512 104.97 77.0332C105.622 76.5554 106.116 76.566 107.833 77.0955C111.679 78.2811 115.574 76.8606 117.192 73.6821C118.303 71.4989 118.309 68.5775 117.205 66.899L116.356 65.6092L120.028 61.6999C129.145 51.9931 132.198 38.3162 126.888 30.9692C124.971 28.3171 123.944 26.0642 123.36 23.2323C122.624 19.656 120.971 17.8508 117.775 17.1341C115.373 16.5954 113.213 15.3374 113.213 14.4776C113.213 14.2374 112.698 12.9882 112.07 11.7019C110.001 7.46582 106.293 6.74119 101.503 9.63661C98.3148 11.5637 97.69 11.5641 94.9279 9.64103C92.6099 8.02706 90.0162 7.36293 88.1392 7.90254C86.769 8.29642 84.002 10.1206 83.0318 11.2704C82.3754 12.0481 79.2136 13.912 78.0452 14.21C76.6683 14.5615 74.5288 13.7623 73.9516 12.6813C73.5418 11.9138 73.8767 11.4232 76.5568 8.86385C79.9693 5.60501 82.1634 2.53605 81.7858 1.54957C81.6497 1.19454 80.7839 0.693791 79.8618 0.437235C77.3865 -0.251626 69.6743 -0.0939821 67.9009 0.681869ZM69.8832 2.04413C69.3214 2.18941 69.1425 2.52722 69.3029 3.14145C69.9453 5.60325 65.8865 8.54901 62.2185 8.28318C60.2434 8.14011 60.1209 8.20369 58.837 10.0301C57.205 12.3519 57.5637 13.2483 60.3451 13.7994C63.135 14.3527 65.6437 13.8166 69.632 11.8158C73.1444 10.0539 77.2953 6.52349 79.0665 3.7919C79.7529 2.73255 79.7816 2.47865 79.252 2.14261C78.6144 1.73812 71.3618 1.66217 69.8832 2.04413ZM29.9401 2.24638C29.9401 2.34661 30.3366 3.20769 30.8213 4.16061C31.3059 5.11354 31.7025 6.41751 31.7025 7.05824C31.7025 8.81307 32.5753 10.9693 33.482 11.4559C36.7332 13.1997 39.0023 9.68165 37.2707 5.58161C36.327 3.34634 35.0572 2.48924 32.3568 2.26492C31.0275 2.15453 29.9401 2.14614 29.9401 2.24638ZM22.9734 4.00827C21.8679 4.71744 21.6406 5.06364 22.0371 5.43589C22.4226 5.79798 22.613 5.78164 22.7619 5.37495C23.1836 4.22243 23.7718 4.89142 23.7718 6.52394C23.7718 7.56252 24.1634 8.80954 24.7772 9.72537C26.6132 12.4649 29.1439 11.6732 29.9463 8.10831C30.4472 5.88188 29.8154 4.46839 27.9741 3.69784C25.895 2.82705 24.6979 2.90123 22.9734 4.00827ZM39.5098 4.24275C38.8705 4.41275 38.7753 4.75188 38.9948 6.0722C40.1095 12.7687 42.4336 15.9525 45.6235 15.1501C47.1683 14.7616 47.6859 13.5 47.3392 10.9715C46.74 6.60607 42.9306 3.33266 39.5098 4.24275ZM17.4642 6.92047C17.3589 7.10284 17.1342 8.44391 16.9645 9.90112C16.5284 13.6554 14.6091 23.0734 13.7839 25.5095C13.4015 26.6395 12.6172 28.6319 12.0413 29.9372C11.4655 31.2425 10.9945 32.5677 10.9945 32.8817C10.9945 33.3475 14.3267 34.4086 15.7908 34.4086C16.9399 34.4086 20.1954 24.6485 20.9515 18.9367C21.1167 17.6901 21.4719 16.5879 21.7406 16.4868C22.2601 16.2921 25.1993 16.6475 32.3634 17.7709C42.2428 19.32 46.3056 19.8366 48.6059 19.8366C51.6694 19.8366 52.4127 20.5127 52.4038 23.2902C52.3928 26.7985 49.9955 35.566 47.7683 40.2445C46.9475 41.9685 46.8792 42.4122 47.3714 42.8216C48.2274 43.5338 48.7465 43.0516 50.1634 40.2273C53.8296 32.9205 55.8057 26.4974 56.1657 20.7198C56.5776 14.0948 56.1806 13.4885 51.2006 13.1379C49.4184 13.0125 49.1073 13.1149 48.9641 13.8753C48.5055 16.3097 45.5887 17.6636 43.0729 16.61C41.6701 16.0227 39.4918 13.8921 39.1054 12.7294C38.9824 12.3598 38.5379 12.4181 37.543 12.9339C35.4158 14.0365 33.7133 13.8462 31.9699 12.3121C30.7592 11.2466 30.3697 11.0965 30.082 11.5853C29.4651 12.634 27.7534 13.2867 26.4012 12.9891C24.9217 12.6632 22.8906 10.4615 22.8906 9.18311C22.8906 7.86147 18.0793 5.85539 17.4642 6.92047ZM87.433 10.4964C86.224 10.9097 83.9857 12.1019 82.4591 13.1449C78.3637 15.9441 75.8603 16.1198 73.111 13.8011L71.7138 12.623L68.8914 14.0175C66.2782 15.3091 66.0698 15.5193 66.0786 16.852C66.0931 19.0484 67.5683 21.8855 69.1108 22.6848C71.8293 24.0938 73.93 24.0064 77.3455 22.3426C82.8314 19.6706 84.8502 19.7814 87.8154 22.9179C89.7161 24.928 91.3882 25.3983 94.267 24.7324C99.3647 23.5538 102.849 24.493 104.621 27.5249C105.211 28.533 106.305 29.9452 107.053 30.6632C108.331 31.8912 108.678 31.9822 112.905 32.2052C116.388 32.3889 117.817 32.664 119.262 33.4297C121.224 34.4696 122.465 36.2809 122.465 38.1033C122.465 39.8299 120.953 42.9117 119.182 44.7932L117.555 46.5224L119.743 50.8879L121.931 55.2529L123.675 52.6688C126.151 49.0032 127.278 46.1939 127.809 42.3712C128.523 37.2246 127.841 34.8087 124.107 29.2559C123.263 28.0005 122.15 25.5793 121.634 23.8753C120.586 20.4186 119.408 19.1544 116.803 18.6907C114.103 18.2098 112.472 16.9301 111.628 14.6304C109.866 9.82781 107.324 9.00383 101.99 11.5054C99.229 12.8005 98.9223 12.8539 97.2045 12.3395C96.1946 12.037 94.6746 11.4431 93.8264 11.0196C91.4009 9.80838 89.8227 9.679 87.433 10.4964ZM14.1699 11.7752C13.8998 12.6875 13.279 15.2438 12.7903 17.4556C12.3013 19.6675 11.7245 21.9526 11.5082 22.5338C10.8041 24.4233 10.4191 28.0667 10.9808 27.5196C11.6408 26.8767 12.507 23.5538 13.8866 16.3702C15.003 10.5564 15.1273 8.53753 14.1699 11.7752ZM58.1977 17.8778C58.1237 21.0977 57.3786 26.1167 56.5366 29.0713C55.2673 33.5246 50.3344 44.6029 49.3492 45.2132C49.1086 45.362 47.2877 44.6718 45.3028 43.6791C42.5213 42.2882 41.6101 42.0055 41.3308 42.4467C41.1317 42.7615 40.9656 43.1784 40.9616 43.3722C40.951 43.9224 37.3465 45.4278 36.0137 45.4384C34.4174 45.4512 34.0147 46.3396 33.4785 51.0301C32.8436 56.586 32.8969 60.6896 33.6124 61.2844C36.5746 63.7479 56.8164 71.3585 56.8164 70.0082C56.8164 69.9159 56.3472 68.5744 55.774 67.0275C54.4531 63.4644 53.5256 56.427 53.9182 52.9487C54.4253 48.4565 55.7488 44.2691 57.7196 40.9224C59.7124 37.539 63.8435 31.8109 64.963 30.8796C65.7671 30.211 65.7962 29.3093 65.0974 26.6921C64.6824 25.1364 64.6837 24.3795 65.1022 23.2186C65.5424 21.999 65.5195 21.4492 64.9723 20.1373C64.6061 19.259 64.3065 17.8879 64.3061 17.0909V15.6416L61.2788 15.5904L58.2514 15.5392L58.1977 17.8778ZM22.4495 19.2846C22.4486 20.933 20.5285 28.7635 19.3535 31.912C18.8283 33.3188 18.5172 34.5884 18.6622 34.7337C18.8071 34.8794 19.9668 35.1492 21.2388 35.3333C22.5108 35.5179 24.2062 35.8098 25.0067 35.982C26.3929 36.2796 26.4488 36.2421 26.1853 35.1902C25.8033 33.6642 26.7158 30.5069 28.0491 28.741C30.2908 25.7714 33.3344 24.845 36.2662 26.2395C38.1761 27.1478 38.8304 28.3776 39.0833 31.538C39.2574 33.7101 39.1168 34.5928 38.3594 36.0805L37.4201 37.9263L40.94 39.7001C42.876 40.6755 44.7353 41.4739 45.0719 41.4739C46.5519 41.4739 50.6067 29.255 50.7829 24.2639L50.8684 21.8467L49.106 21.5376C48.1367 21.3671 44.4687 20.8147 40.955 20.3091C21.6031 17.5258 22.4504 17.5726 22.4495 19.2846ZM78.6162 23.5317C76.9142 24.3323 74.7332 25.1112 73.7696 25.2627C71.8945 25.5568 70.6828 26.6943 66.6144 31.98C65.4926 33.4372 63.6932 35.623 62.6151 36.8373C57.732 42.3389 55.0034 53.185 56.3392 61.7864C57.5557 69.6182 63.0711 77.0641 70.2546 80.5711C74.3979 82.5936 74.2076 82.4796 73.9199 82.7675C73.7952 82.8925 72.3465 82.5781 70.7009 82.0685C67.3718 81.0379 66.9677 81.2083 66.9585 83.6445C66.9395 88.5248 73.1418 91.0188 80.7764 89.2013C85.2044 88.1477 88.3432 86.7024 91.0727 84.461C93.8855 82.1507 93.5779 81.8928 89.09 82.7989C87.1298 83.1945 88.1458 82.2399 90.1915 81.7638C94.2877 80.8113 99.5427 78.4803 102.369 76.3633L105.23 74.2195L106.908 75.0973C109.424 76.4137 112.545 76.0326 114.169 74.2107C116.649 71.4283 116.373 68.3024 113.394 65.437C112.325 64.409 111.45 63.4649 111.45 63.3395C111.45 63.2141 112.014 63.1112 112.704 63.1112C113.402 63.1112 114.314 62.716 114.764 62.2183C115.536 61.3625 115.538 61.257 114.798 59.6792C114.374 58.774 113.269 56.8408 112.343 55.3836C111.417 53.9264 110.519 52.2634 110.348 51.6884C109.491 48.8133 113.33 53.1434 115.571 57.5791C116.799 60.0091 117.304 60.4454 117.856 59.5498C118.458 58.5744 117.529 56.0768 115.19 52.3822C113.86 50.2811 112.772 48.3585 112.772 48.1095C112.772 47.3915 113.89 47.5818 114.652 48.4287C115.824 49.7305 118.94 55.3235 118.94 56.1232C118.94 57.1516 119.766 57.5888 120.093 56.7344C120.393 55.9506 117.849 50.3253 115.855 47.3654C115.129 46.2866 114.534 45.313 114.534 45.2017C114.534 45.0904 115.332 44.6793 116.307 44.2885C117.282 43.8977 118.785 42.7567 119.648 41.753C121.006 40.1743 121.188 39.7005 120.998 38.238C120.556 34.8498 118.293 33.6372 111.959 33.397C106.696 33.1978 105.746 32.717 103.883 29.3133C102.103 26.0575 101.718 25.8783 97.3512 26.2677C89.4707 26.9698 88.4393 26.7711 85.7402 24.0272C83.3896 21.6374 82.7388 21.5923 78.6162 23.5317ZM67.2264 24.123C66.7629 24.5871 66.9188 26.8303 67.4365 27.1509C67.704 27.3169 68.4243 26.95 69.0372 26.3357L70.1515 25.219L68.827 24.5323C68.0983 24.1548 67.3784 23.9706 67.2264 24.123ZM72.4756 27.5986C72.0663 28.2248 71.1424 28.9428 70.4224 29.1945C68.5085 29.8631 69.113 30.6358 71.6684 30.7868C74.368 30.9467 75.4756 30.1311 75.0408 28.3052C74.8857 27.6547 74.6755 26.9734 74.5737 26.7914C74.1935 26.1127 73.1964 26.4965 72.4756 27.5986ZM31.235 28.0689C28.9492 29.4917 27.8763 32.0714 28.1138 35.5757C28.1993 36.8413 29.2047 37.1588 30.6865 36.3887C31.7452 35.838 32.0144 35.8416 32.7929 36.4139C34.4024 37.5986 34.8184 37.6238 35.904 36.602C37.183 35.3973 37.6377 33.3603 37.2319 30.6495C36.9936 29.0559 36.6825 28.5317 35.6621 28.0027C34.0398 27.1619 32.6594 27.1827 31.235 28.0689ZM93.4462 29.4948C91.4362 31.3768 91.4944 33.5423 93.5907 34.8405C95.7113 36.1542 97.783 36.7128 98.0385 36.0403C98.2117 35.585 95.6188 28.9927 95.0376 28.4098C94.9226 28.295 94.2067 28.783 93.4462 29.4948ZM10.1133 37.0572C10.1133 38.2367 12.8899 41.2562 15.2484 42.641C18.0828 44.3062 22.2019 45.4459 26.4704 45.7457C30.467 46.027 32.5837 45.7523 32.5837 44.9526C32.5837 44.689 31.3447 43.2 29.8299 41.6435C25.954 37.6595 23.6206 36.8656 14.4091 36.3953C10.3367 36.1873 10.1133 36.2218 10.1133 37.0572ZM68.4089 37.4613C67.1519 37.6145 65.9901 37.8728 65.8279 38.0353C65.6658 38.1983 65.505 39.3786 65.4706 40.6592L65.408 42.9876L67.077 43.268C68.5512 43.5153 68.8729 43.3974 69.8307 42.2564C70.4273 41.5459 70.9155 40.5073 70.9155 39.9487C70.9155 39.3896 71.2129 38.6853 71.5764 38.3828C71.9398 38.0804 72.2373 37.6587 72.2373 37.4458C72.2373 37.0303 71.9332 37.0316 68.4089 37.4613ZM30.4842 38.6774C29.8216 38.945 31.6152 41.2641 33.4133 42.4643C35.5387 43.8836 39.6332 43.2565 39.6332 41.5119C39.6332 40.3624 37.1813 39.3751 36.0639 40.0745C34.7981 40.8667 33.8949 40.6963 32.9454 39.4868C32.0924 38.4001 31.5853 38.2332 30.4842 38.6774ZM77.5345 42.6622C75.9651 44.247 73.7842 46.1546 72.688 46.9018C69.5157 49.0642 69.3928 49.5424 71.4164 51.8523C72.8215 53.4565 74.3499 54.5176 74.72 54.1463C74.8324 54.0337 74.4191 53.1951 73.8009 52.2828C73.1832 51.3701 72.6778 50.3915 72.6778 50.1072C72.6778 49.8232 73.7282 48.6818 75.0121 47.5712C77.4464 45.4644 80.8214 40.9833 80.5469 40.2216C80.4596 39.9791 79.1044 41.0778 77.5345 42.6622ZM7.77594 40.46C6.64273 42.3442 3.54137 54.7402 3.06729 59.2796C2.43107 65.372 3.89738 72.156 6.95027 77.2416C8.85452 80.4144 12.6925 84.9516 14.7395 86.4494C15.4665 86.9815 16.8544 88.0205 17.8237 88.7584C22.0499 91.9753 32.3391 98.5473 37.0989 101.07C42.5605 103.965 42.5693 103.965 42.8557 101.308C43.1483 98.5906 44.9653 96.8728 45.4759 98.8308C45.5958 99.29 45.5125 101.227 45.2909 103.136C44.7956 107.398 44.4537 133.148 44.852 136.192C45.134 138.35 45.1966 138.428 47.6172 139.621C49.9876 140.789 55.7964 142.563 57.3222 142.584C57.9518 142.594 58.0562 141.92 58.1074 137.516C58.14 134.723 58.2911 132.112 58.4431 131.715C58.6709 131.12 58.4792 131.028 57.3504 131.194C56.5979 131.305 56.0819 131.233 56.2049 131.034C56.3274 130.835 55.8709 130.672 55.1902 130.672C53.8534 130.672 48.7447 128.424 48.2473 127.618C48.0803 127.347 47.7282 127.259 47.4652 127.422C47.1894 127.592 47.1132 127.513 47.285 127.235C47.4489 126.969 47.1832 126.094 46.6942 125.29C45.6456 123.566 45.5217 121.841 46.447 121.841C46.8017 121.841 47.3075 122.244 47.5705 122.736C47.8336 123.229 48.2675 123.496 48.5354 123.33C48.8139 123.158 48.898 123.23 48.7324 123.499C48.383 124.065 50.7763 126.167 52.6814 126.967C53.4362 127.284 55.047 127.657 56.2613 127.796C58.2889 128.029 58.4911 127.967 58.7383 127.043C59.237 125.177 59.0573 121.401 58.4686 121.377C54.7624 121.227 52.5233 120.789 51.3495 119.984C48.0164 117.697 45.9901 115.065 46.5127 113.7C46.9317 112.605 47.6564 112.877 49.5466 114.84C51.8042 117.183 53.4732 117.867 56.9385 117.867H59.7318L60.3064 113.782C60.6218 111.536 60.9342 109.399 60.9999 109.035C61.0655 108.671 61.2616 107.28 61.4356 105.944C61.6097 104.608 62.0392 102.249 62.3904 100.702C63.001 98.0117 62.9905 97.862 62.1529 97.2742C60.9708 96.4441 58.7925 93.1521 58.2122 91.3178C56.8442 86.9956 57.5205 80.7924 59.6706 77.946L60.7025 76.5793L59.5106 75.1587C58.5554 74.0203 57.7099 73.6 55.2545 73.0427C51.0834 72.0959 44.0154 69.8329 40.7347 68.3946C37.4893 66.9714 34.2795 65.7606 33.7517 65.7606C33.4107 65.7606 32.9022 66.3144 32.6224 66.9909C31.9668 68.5783 27.4168 73.2639 26.5255 73.2697C26.3435 73.271 25.5324 73.4909 24.7226 73.7589C23.6092 74.1272 23.1254 74.1157 22.7399 73.7117C22.3486 73.3023 22.5381 72.9561 23.5515 72.2289C25.6597 70.716 28.9355 67.1273 29.8031 65.38C30.4807 64.016 30.601 62.6223 30.601 56.1471V48.5206L26.4153 48.3779C19.2618 48.1346 14.7603 46.3648 9.91899 41.8921C8.85671 40.9109 7.89226 40.2662 7.77594 40.46ZM89.8611 41.0791C89.8611 41.5905 89.3654 42.599 88.7596 43.3206C87.2673 45.0984 87.2052 47.8728 88.6494 48.2609C90.5784 48.7789 91.6754 48.5281 92.6998 47.3345L93.7335 46.1299L92.1707 43.1395C90.5673 40.0719 89.8611 39.4417 89.8611 41.0791ZM108.366 54.5684C108.366 54.942 111.256 60.006 112.044 61.0137C112.761 61.9304 113.653 62.0297 113.653 61.1925C113.653 60.505 110.257 55.0996 109.522 54.6174C108.903 54.2121 108.366 54.1891 108.366 54.5684ZM68.4424 56.4164C64.9784 58.608 63.7893 65.7205 66.198 69.8395C68.1058 73.1023 70.8881 74.5944 75.0566 74.5895C78.3959 74.586 80.6183 73.8031 82.4229 71.9948C86.1856 68.2237 85.7741 63.3456 81.3483 59.2571C78.0967 56.253 71.1256 54.719 68.4424 56.4164ZM107.044 58.7638C107.044 59.6934 108.329 61.3449 109.052 61.3449C110.189 61.3449 109.587 60.0731 107.815 58.7298C107.171 58.2415 107.044 58.2468 107.044 58.7638ZM75.9907 65.5831C72.8466 66.7365 69.6117 70.8127 70.8529 72.0566C71.1309 72.3353 72.6554 72.6461 74.2402 72.7473C79.1603 73.0612 82.5679 71.1413 83.1178 67.7446C83.3323 66.4199 83.2186 65.9452 82.5754 65.4736C81.5276 64.7057 78.2333 64.7605 75.9907 65.5831ZM69.9735 76.933C70.3039 77.3397 71.2265 78.0767 72.024 78.5708C73.2533 79.3321 73.6507 79.3886 74.6297 78.9417C76.0858 78.2767 75.8669 77.5061 74.1856 77.3776C72.792 77.2717 71.4662 76.9802 70.1854 76.4985C69.4721 76.2304 69.4465 76.283 69.9735 76.933ZM61.6586 80.19C60.0922 82.6651 59.7098 84.4363 60.0147 87.805C60.3042 91.0052 61.611 93.5831 63.8633 95.3971C64.8339 96.1791 65.6283 97.1996 65.6283 97.665C65.6283 98.1305 65.2336 100.06 64.7515 101.953C63.9734 105.007 62.1036 116.425 62.1036 118.121C62.1036 118.477 62.649 118.983 63.3152 119.245C63.9814 119.507 65.419 120.135 66.5095 120.639C69.035 121.808 67.9031 122.159 64.6921 121.203C63.4156 120.823 62.2362 120.662 62.0709 120.846C61.9057 121.029 61.6396 122.88 61.4801 124.96L61.1898 128.741L63.2658 129.387C65.7737 130.168 66.5531 131.373 64.2484 130.907C63.4324 130.742 62.4336 130.514 62.0291 130.4C61.0069 130.114 60.8919 130.762 60.5483 138.731C60.2579 145.466 60.2182 145.685 59.3036 145.66C58.0144 145.626 53.4322 144.311 48.7244 142.625C46.5761 141.855 44.7111 141.333 44.5802 141.464C44.4493 141.595 44.5634 143.642 44.834 146.012C45.1045 148.383 45.457 151.714 45.6174 153.414C45.7773 155.114 46.121 156.77 46.3805 157.094C47.0625 157.946 52.5832 160.658 56.0251 161.833C62.9566 164.199 75.0491 165.608 83.2424 165.004C89.8628 164.517 89.8611 164.517 89.8611 162.622C89.8611 161.547 90.6118 159.618 92.1711 156.688C94.0295 153.196 94.3723 152.239 93.9256 151.791C92.9585 150.822 90.7401 152.486 87.2043 156.832C82.2903 162.872 81.8286 163.329 80.3499 163.612C78.3673 163.992 76.5551 162.342 76.5551 160.157C76.5551 157.984 79.3705 152.773 82.0405 150.005C83.1918 148.812 84.1333 147.749 84.1333 147.644C84.1333 147.539 82.6701 147.452 80.8822 147.452C78.2976 147.452 77.1063 147.693 75.0725 148.627C68.0877 151.831 64.8154 148.297 69.9492 143.094C71.0864 141.941 72.8523 140.314 73.8736 139.478L75.7303 137.959L76.2048 130.231C76.9684 117.797 79.1581 101.331 80.2336 99.9369C80.4403 99.6689 81.9475 99.2278 83.583 98.9566C94.8001 97.0972 103.901 90.6369 105.767 83.2096C106.358 80.8555 106.219 80.6542 103.481 79.8933C100.604 79.0941 97.6605 80.3649 93.7731 84.0852C88.7071 88.9333 82.6908 91.4194 75.9616 91.4459C71.0252 91.4653 67.7286 89.7732 65.9685 86.3165C65.2578 84.9211 65.1331 84.0702 65.3433 82.0548C65.5856 79.7299 65.523 79.4822 64.5312 78.8304C63.94 78.4423 63.346 78.1248 63.2108 78.1248C63.076 78.1248 62.3772 79.0539 61.6586 80.19ZM107.943 86.1218C106.658 89.3625 102.982 93.3212 99.3488 95.3763C98.0077 96.135 96.9106 96.902 96.9106 97.0813C96.9106 97.2605 96.663 97.4155 96.3598 97.4261C95.3033 97.4632 91.2031 99.6353 91.5221 99.9891C91.6988 100.185 91.6182 100.216 91.3419 100.058C91.0661 99.8999 88.9512 100.216 86.6425 100.76C82.5181 101.732 82.437 101.776 81.9823 103.296C81.7277 104.147 81.4043 105.637 81.2628 106.608C81.1218 107.579 80.9152 108.643 80.8033 108.972C80.6914 109.301 80.4922 110.494 80.3605 111.622C80.2288 112.749 79.9371 114.963 79.7128 116.542C79.4881 118.121 79.3004 120.356 79.2956 121.51C79.2885 123.219 79.4295 123.606 80.0578 123.601C82.0246 123.586 82.8115 123.04 83.257 121.381C84.0351 118.485 87.1122 116.663 90.5568 117.058C91.4499 117.161 92.0975 117.649 92.7188 118.689C93.2069 119.505 94.367 121.037 95.2971 122.092C96.7828 123.778 97.1573 123.982 98.3813 123.77C100.437 123.415 103.077 122.348 104.313 121.373C105.882 120.137 106.692 120.263 106.523 121.718C106.421 122.596 105.742 123.367 103.995 124.588C102.682 125.506 101.73 126.257 101.881 126.257C102.683 126.257 106.887 125.222 107.265 124.932C107.507 124.745 108.3 124.463 109.027 124.304C110.221 124.044 113.159 122.164 112.111 122.331C111.21 122.474 108.81 121.714 108.328 121.133C107.935 120.658 108.095 120.422 109.089 120.012C110.881 119.275 115.137 119.293 116.036 120.041C116.677 120.574 116.949 120.525 118.104 119.67C120.416 117.956 123.393 115.909 124.826 115.047C126.808 113.855 131.913 112.126 133.45 112.126C135.443 112.126 139.305 113.019 140.447 113.744C142.312 114.928 141.329 115.324 136.326 115.405C130.609 115.497 128.307 116.297 122.685 120.144C120.747 121.47 117.822 123.299 116.187 124.207C114.551 125.115 113.213 125.977 113.213 126.122C113.213 126.268 113.933 127.267 114.812 128.343C116.615 130.548 119.843 138.091 120.685 142.067C120.991 143.514 121.149 145.622 121.037 146.752C120.924 147.881 120.988 148.902 121.179 149.02C121.782 149.394 130.925 147.044 134.265 145.657C142.761 142.128 147.198 137.252 148.75 129.739C149.823 124.545 148.38 120.096 143.496 113.538C137.875 105.991 128.368 96.0749 122.685 91.8327C120.026 89.8469 113.736 85.6316 113.432 85.6316C113.286 85.6316 112.436 85.1348 111.545 84.5277C110.653 83.9205 109.719 83.4237 109.468 83.4237C109.217 83.4237 108.53 84.6376 107.943 86.1218ZM87.3783 119.708C84.7431 120.986 85.0758 124.571 88.0819 127.293C90.4136 129.404 92.9919 130.668 95.0204 130.694C96.3528 130.711 95.6219 131.055 91.4032 132.399C88.4952 133.325 85.0013 134.593 83.6385 135.217C78.4184 137.609 71.7676 142.419 69.8523 145.189C67.192 149.037 70.1797 149.478 76.344 146.148C83.0111 142.546 87.6303 141.986 88.0229 144.733C88.1326 145.499 87.2748 146.678 84.4981 149.579C79.3476 154.961 76.834 160.093 78.6202 161.578C79.8371 162.591 81.3937 161.658 83.9637 158.377C89.2764 151.594 92.4557 149.094 94.5512 150.051C96.155 150.783 95.8659 152.655 93.3858 157.609C90.9837 162.406 90.8471 162.962 91.8649 163.808C93.4977 165.166 96.7943 162.13 99.5564 156.726C100.719 154.45 100.996 154.214 103.954 152.984C107.935 151.329 110.128 149.298 110.128 147.268C110.128 144.386 108.764 138.035 107.628 135.628C105.91 131.987 103.822 129.943 99.7956 127.957C96.0391 126.105 92.0649 122.65 91.1533 120.444C90.5942 119.092 89.2055 118.821 87.3783 119.708ZM78.8466 128.843C78.8462 131.23 78.9515 131.61 79.548 131.38C81.2545 130.724 82.3322 130.654 84.7916 131.041C87.5629 131.476 90.1078 131.091 88.2864 130.511C87.792 130.354 86.5381 129.332 85.5005 128.241C83.5755 126.217 83.379 126.132 80.4989 126.071L78.8466 126.036V128.843ZM106.604 127.702C105.756 127.961 104.99 128.227 104.902 128.295C104.814 128.361 105.438 129.272 106.287 130.317C109.157 133.85 110.514 137.104 111.223 142.153C111.582 144.704 111.879 147.635 111.883 148.667L111.891 150.543L114.424 150.537C118.201 150.527 118.288 150.409 118.23 145.369C118.188 141.658 117.99 140.563 116.826 137.599C115.201 133.46 113.238 130.291 111.177 128.477C109.556 127.051 109.026 126.961 106.604 127.702ZM45.6244 132.322C44.6172 133.331 47.2295 136.657 50.237 138.194C51.9571 139.074 57.3976 140.09 57.0085 139.459C56.8948 139.274 57.0041 138.998 57.2508 138.845C58.2003 138.257 56.8327 136.935 54.9496 136.62C52.8387 136.266 48.2438 134.089 47.6996 133.185C47.2762 132.481 45.9967 131.949 45.6244 132.322ZM78.5206 134.286C78.4496 135.233 78.3554 135.214 80.1023 134.603C81.8929 133.978 81.866 133.55 80.034 133.513C78.9334 133.491 78.5664 133.678 78.5206 134.286ZM47.1233 146.071C47.1233 146.615 50.5921 147.951 52.2466 148.044C54.1583 148.151 54.0164 147.348 52.0192 146.757C49.0892 145.89 47.1233 145.615 47.1233 146.071ZM107.485 152.99C106.879 153.327 105.437 153.926 104.28 154.32C102.552 154.909 102.01 155.366 101.253 156.875C100.745 157.886 99.6599 159.656 98.8413 160.81C98.0227 161.964 97.4653 162.908 97.6023 162.908C98.0848 162.908 106.564 160.693 107.615 160.293C108.534 159.942 108.711 159.523 108.922 157.192C109.056 155.71 109.035 154.02 108.876 153.437C108.606 152.45 108.511 152.419 107.485 152.99Z" fill="black"/>
</svg>
